<?xml version="1.0" encoding="utf-8"?>
<!-- Generator: Adobe Illustrator 25.1.0, SVG Export Plug-In . SVG Version: 6.00 Build 0)  -->
<svg version="1.1" id="Layer_1" xmlns="http://www.w3.org/2000/svg" xmlns:xlink="http://www.w3.org/1999/xlink" x="0px" y="0px"
	 viewBox="0 0 87 87" style="enable-background:new 0 0 87 87;" xml:space="preserve">
<style type="text/css">
	.st0{fill:none;stroke:#3C3F76;stroke-miterlimit:10;}
	.st1{fill:none;stroke:#3D3F76;stroke-width:0.5;stroke-miterlimit:10;}
	.st2{fill:#CCCCCC;stroke:#3C3F76;stroke-miterlimit:10;}
	.st3{fill:#FEE685;}
	.st4{fill:#CCCCCC;}
</style>
<circle class="st0" cx="43.5" cy="43.5" r="40"/>
<path class="st1" d="M4.5,34.7h78"/>
<path class="st1" d="M3.5,43.5h80"/>
<path class="st1" d="M3.6,40.6h79.8"/>
<path class="st1" d="M83.1,37.6H3.9"/>
<path class="st1" d="M3.6,46.4h79.8"/>
<path class="st1" d="M83.1,49.4H3.9"/>
<path class="st1" d="M4.5,52.3h78"/>
<path class="st1" d="M6.8,59.3l63.1-45.9"/>
<path class="st1" d="M11.1,67l64.7-47"/>
<path class="st1" d="M9.5,64.6L74,17.7"/>
<path class="st1" d="M72.1,15.5L8,62"/>
<path class="st1" d="M13,69.3l64.5-46.9"/>
<path class="st1" d="M79,25l-64,46.5"/>
<path class="st1" d="M17.1,73.6l63.1-45.9"/>
<path class="st1" d="M23.1,77.9L47.2,3.7"/>
<path class="st1" d="M31.1,81.5L55.9,5.5"/>
<path class="st1" d="M28.4,80.5L53,4.7"/>
<path class="st1" d="M50.1,4.1L25.7,79.3"/>
<path class="st1" d="M34,82.3L58.6,6.5"/>
<path class="st1" d="M61.3,7.7L36.9,82.9"/>
<path class="st1" d="M39.8,83.3L63.9,9.1"/>
<path class="st1" d="M47.2,83.3L23.1,9.1"/>
<path class="st1" d="M55.9,81.5L31.1,5.5"/>
<path class="st1" d="M53,82.3L28.4,6.5"/>
<path class="st1" d="M25.7,7.7l24.5,75.3"/>
<path class="st1" d="M58.6,80.5L34,4.7"/>
<path class="st1" d="M36.9,4.1l24.5,75.3"/>
<path class="st1" d="M63.9,77.9L39.8,3.7"/>
<path class="st1" d="M69.9,73.6L6.8,27.7"/>
<path class="st1" d="M75.9,67L11.1,20"/>
<path class="st1" d="M74,69.3L9.5,22.4"/>
<path class="st1" d="M8,25l64,46.5"/>
<path class="st1" d="M77.5,64.6L13,17.7"/>
<path class="st1" d="M14.9,15.5L79,62"/>
<path class="st1" d="M80.2,59.3L17.1,13.4"/>
<polygon class="st2" points="43.5,5.5 49.7,24.5 65.8,12.7 59.7,31.7 79.6,31.7 63.5,43.5 79.6,55.2 59.7,55.2 65.8,74.2 49.7,62.5 
	43.5,81.5 37.3,62.5 21.2,74.2 27.3,55.2 7.4,55.2 23.5,43.5 7.4,31.7 27.3,31.7 21.2,12.7 37.3,24.5 "/>
<polygon class="st3" points="43.5,22.5 48.2,37 63.5,37 51.2,46 55.8,60.5 43.5,51.5 31.2,60.5 35.8,46 23.5,37 38.8,37 "/>
<polygon class="st4" points="43.5,28.2 46.9,38.8 58,38.8 49.1,45.3 52.5,55.9 43.5,49.4 34.5,55.9 37.9,45.3 29,38.8 40.1,38.8 "/>
<circle class="st0" cx="43.5" cy="43.5" r="43"/>
</svg>
