<svg xmlns="http://www.w3.org/2000/svg" viewBox="0 0 468.9 49.845">
    <defs>
        <style>
            .cls-1 {
                fill: #8e2a3d;
            }
            .cls-2 {
                fill: #3e4070;
            }
            .cls-3 {
                fill: #fff;
            }
            .cls-4 {
                fill: #95243d;
            }
            .cls-5 {
                fill: #f3e193;
            }
        </style>
    </defs>
    <g id="Layer_1" data-name="Layer 1">
        <path
            class="cls-1"
            d="M29.6,42.2V40.1h1.5c2.1,0,2.5-.4,2.5-2.5V8.2l-4-5V1.1H60.3l4,5V19.7H62l-4-5a11.075,11.075,0,0,0-.8-4.4,12.444,12.444,0,0,0-6.7-2.2c-.5,0-1.6.1-1.6.4v9.4a9.78,9.78,0,0,0,2.3-6.7h2.3l4,5v15a16.436,16.436,0,0,0,1.3-5.4h2.3l4,5-.5,16.4h-31ZM54.8,36l-3.5-4.9a14.723,14.723,0,0,0-.4-3.6,6.279,6.279,0,0,0-1.9-.3V40.1A11.935,11.935,0,0,0,54.8,36Z"
        />
        <path class="cls-1" d="M70.7,42.2V40.3H72c1.9,0,2.2-.4,2.2-2.2V12L70.6,7.5V5.6H88l3.6,4.5V12H90.3c-1.9,0-2.2.4-2.2,2.2V40c3.7-1.6,7-7.8,7.4-12.7h1.9l3.6,4.5-.4,14.8H74.3Z" />
        <path
            class="cls-1"
            d="M104.2,42.2V40.3h1.3c1.9,0,2.2-.4,2.2-2.2V12l-3.6-4.5V5.6h27.3l3.6,4.5V22.2h-2l-3.6-4.5a10.361,10.361,0,0,0-.7-3.9,10.817,10.817,0,0,0-6-1.8c-.4,0-1.4,0-1.4.4v8.4a8.729,8.729,0,0,0,2-6h2l3.6,4.4V32.5a12.958,12.958,0,0,0,1.1-4.8h2l3.6,4.5-.4,14.6H107.6Zm22.4-5.5-3.1-4.3a11.236,11.236,0,0,0-.4-3.2,4.671,4.671,0,0,0-1.7-.3V40.4A10.857,10.857,0,0,0,126.6,36.7Z"
        />
        <path
            class="cls-1"
            d="M147.6,42.1l-3-3.8c-2.9-3.4-4.4-8.3-4.4-14,0-10.1,5.1-19.2,14.6-19.2,4.9,0,6.6,2.9,7.9,2.9.5,0,.9-.4,1-2.3h1.8l3.6,4.5V22.6h-1.9l-3.6-4.5a13.879,13.879,0,0,0-1.2-5.7,4.645,4.645,0,0,0-2.3-.6c-4.3,0-4.9,7.2-4.9,17.1a59.1,59.1,0,0,0,.9,11.9h.2c3.9,0,7.6-5.8,7.8-13h2.1l3.6,4.5c-.3,5.8-2.1,15.1-11.8,15.1A13.673,13.673,0,0,1,147.6,42.1Z"
        />
        <path
            class="cls-1"
            d="M180.4,42.2V40.3h1.4c1.9,0,2.2-.4,2.2-2.2V13.8a20.664,20.664,0,0,0-4.2,11.4h-2l-3.6-4.5V5.6h30l3.6,4.5V25.2h-2l-3.6-4.5a20.1,20.1,0,0,0-2.2-8.3,2.822,2.822,0,0,0-1.5-.4c-.3,0-.5,0-.5.4V40.3l3.6,4.5v1.9H184Z"
        />
        <path class="cls-1" d="M212,42.2V40.3h1.4c1.8,0,2.2-.4,2.2-1.9V12L212,7.5V5.6h17.3l3.6,4.5V12h-1.4c-1.9,0-2.2.4-2.2,2.2V40.3l3.6,4.5v1.9H215.7Z" />
        <path
            class="cls-1"
            d="M244.2,41.7l-3.4-4.2A21.755,21.755,0,0,1,236.5,24c0-11.2,6.7-18.9,15.2-18.9a14.562,14.562,0,0,1,11.2,5.7l3.5,4.4a21.634,21.634,0,0,1,4.2,13.2c0,11-6.7,19-15.3,19A14.213,14.213,0,0,1,244.2,41.7Zm11.4-8.3v-19a17.2,17.2,0,0,0-.2-3.2c-2.2,0-3.9,2.5-3.9,7.7v19a18.413,18.413,0,0,0,.3,3.3c2.3,0,3.8-2.6,3.8-7.8Z"
        />
        <path class="cls-1" d="M274.2,42.2V40.3h.9c1.9,0,2.3-.4,2.3-2.2V11.4l-3.1-3.9V5.6h13.5l3.6,4.5,7.6,15V11.4l-3-3.9V5.6h8.4l3.6,4.5V12h-1.6c-1.3,0-1.5.3-1.5,1.3l-.2,33.4h-7.2l-3.6-4.5L283.1,20.1V40.3l3.4,4.5v1.9h-8.7Z" />
        <path class="cls-2" d="M330.5,42.2V40.1H332c2.1,0,2.5-.4,2.5-2.5V8.2l-4-5V1.1h19.4l4,5V8.2h-1.5c-2.1,0-2.5.4-2.5,2.5v29c4.1-1.8,7.9-8.8,8.3-14.3h2.1l4,5L364,47.2H334.6Z" />
        <path
            class="cls-2"
            d="M367,42.2V40.3h.8a3.121,3.121,0,0,0,3-2.2L381.7,5.4h4.4l4.2,5.2,9.5,29.7,3.6,4.5v1.9H386l-3.6-4.5V40.3h1.7c1,0,1.4-.6,1.4-1.2a.749.749,0,0,0-.1-.5l-.8-2.6h-6.1l-1.6,5.2,2.9,3.6v1.9h-9.3Zm15.7-12.6-1-3.4-1.1,3.4Z"
        />
        <path
            class="cls-2"
            d="M405.4,42.2V40.3h1.4c1.9,0,2.2-.4,2.2-2.2l.1-26.1-3.6-4.5V5.6h18.7c4.3,0,7.3,1.3,8.9,3.5l3.4,4.2a8.634,8.634,0,0,1,1.9,5.8c0,4-1.8,6.4-4.1,7.6l3,3.7a9.085,9.085,0,0,1,2.1,6.3c0,5.5-3.2,9.9-9.9,9.9H409Zm19.5-27.3a15.137,15.137,0,0,0-.2-3h-.8a8.6,8.6,0,0,0-1.6.1V22.2C424.2,21.2,424.9,18.6,424.9,14.9Zm-.2,17.4a21.863,21.863,0,0,0-.3-3.6h-.2a12.1,12.1,0,0,0-1.9.1V40C424,38.9,424.7,36,424.7,32.3Z"
        />
        <path
            class="cls-1"
            d="M28.5,42.6V39h2.6c1.5,0,1.5,0,1.5-1.5V5.7c0-1.5,0-1.5-1.5-1.5h-2l-.6-.7V0H60.8l.6.7V15.5H57c.3-6.9-4-11.2-10.5-11.3-.3,0-.5,0-.5.1V18.8c2.6-.8,4.3-4.3,4.2-8.6l4.2.1L54.6,32H50.2c.3-4.6-1.5-8-4.2-8.7V37.5c0,1.7.1,1.8,1.4,1.7,5.2-.2,10.7-7.7,10.5-14.5h3.8l.6.7-.6,17.8H29.1Z"
        />
        <path class="cls-1" d="M69.8,42.5V39.3h2.3c1.3,0,1.3,0,1.3-1.3V9.8c0-1.4,0-1.3-1.3-1.3H70.3l-.5-.6V4.7H88.5l.5.6V8.5H86.7c-1.3,0-1.3,0-1.3,1.3V37.3c0,2.1.2,2.3.9,2.3,3.5,0,8.2-7.2,8.3-13.1h3.2l.5.6-.4,16.1H70.3Z" />
        <path
            class="cls-1"
            d="M103.3,42.5V39.3h2.3c1.3,0,1.3,0,1.3-1.3V9.8c0-1.4,0-1.3-1.3-1.3h-1.8l-.5-.6V4.7H132l.5.6V18.4h-3.9c.3-6.1-3.6-10-9.3-10-.2,0-.4,0-.4.1V21.3c2.3-.7,3.9-3.8,3.8-7.6h3.8l.1,19.3h-3.9c.2-4.1-1.3-7.1-3.7-7.8V38c0,1.5.1,1.6,1.2,1.5,4.6-.1,9.5-6.8,9.3-12.9h3.4l.5.6L132.8,43H103.9Z"
        />
        <path
            class="cls-1"
            d="M139.2,24.3c0-11.9,6.3-20.2,15.6-20.2,4.7,0,7.2,2.8,7.7,2.8s.4-1.5.4-2.2H166l.4.5V18.8h-3.8c.2-5.5-2.9-10.6-6.1-10.6-2.8,0-3.9,4.4-3.9,16.1,0,11.4,1.2,15.5,3.8,15.5,3.5,0,7-6.2,6.8-13h3.5l.5.7c-.4,10.4-4.9,16.3-12.8,16.3C145.4,43.8,139.2,35.9,139.2,24.3Z"
        />
        <path
            class="cls-1"
            d="M179.4,42.5V39.3h2.3c1.4,0,1.3,0,1.3-1.3V8.6c0-.2-.2-.1-.3,0-2.5,1.2-5.6,7.5-5.6,12.1v1h-3.4l-.5-.6V4.7h31.4l.5.6V21.7h-3.4l-.5-.6c.1-4.6-3-11.2-5.6-12.4-.1,0-.4-.2-.4,0V38.2c0,1.3,0,1.3,1.3,1.3h2.3v3.7h-19Z"
        />
        <path class="cls-1" d="M211,42.5V39.3h2.3c1.3,0,1.3,0,1.3-1V9.8c0-1.3,0-1.3-1.4-1.3h-1.8l-.4-.7V4.7h18.7l.5.6V8.5h-2.3c-1.3,0-1.3,0-1.3,1.3V38.1c0,1.3,0,1.3,1.3,1.3h2.2v3.7H211.6Z" />
        <path class="cls-1" d="M235.6,24c0-11.4,6.8-19.8,16.1-19.8,9.1,0,16.2,8.5,16.2,19.7s-7,19.9-16.2,19.9S235.6,35.3,235.6,24Zm19,9.4v-19c0-4.4-1.1-6.8-2.9-6.8s-2.9,2.5-2.9,6.8v19c0,4.3,1.2,6.8,2.9,6.8S254.6,37.8,254.6,33.4Z" />
        <path
            class="cls-1"
            d="M273.3,42.5V39.4h1.9c1.2,0,1.3-.1,1.3-1.3l.1-28.9c0-.7,0-.8-1.3-.8H274l-.5-.6V4.7h14.9l.3.4,9.5,18.8V9.3c0-.8-.1-.9-1.1-.9h-1.6l-.5-.6V4.7h9.8l.5.6V8.5h-2.1c-.9,0-1.1.1-1.1.9L302,43.1h-8.6l-.3-.4L280.4,16.9l.2,21.3c0,1.2.2,1.3,1.3,1.3H284v3.7H273.8Z"
        />
        <path class="cls-2" d="M329.5,42.6V39H332c1.5,0,1.5,0,1.5-1.5V5.7c0-1.5,0-1.5-1.5-1.5h-2l-.6-.7V0h21l.5.7V4.3h-2.6c-1.5,0-1.5-.1-1.5,1.5V36.7c0,2.3.2,2.6,1,2.6,4,0,9.2-8.1,9.3-14.7h3.6l.5.7L361,43.2H330Z" />
        <path
            class="cls-2"
            d="M366,42.5V39.4h1.7a2.055,2.055,0,0,0,2.1-1.6L381,4.5h5.5l.4.4,10.9,33.5a1.291,1.291,0,0,0,1.3.9h1.6V43H382l-.5-.6V39.3h2.6c.3,0,.5-.2.4-.5l-2-6.4h-6.9l-1.7,5.5v.5a1.063,1.063,0,0,0,1,.9h2.3V43H366.5Zm15.4-13.8-2.2-7.3-2.3,7.3Z"
        />
        <path
            class="cls-2"
            d="M404.4,42.5V39.3h2.3c1.2,0,1.3-.1,1.3-1.3l.1-28.8c0-.8-.1-.9-1.3-.9H405l-.5-.6v-3h19.6c7.3,0,11.5,3.6,11.5,9.9,0,3.8-1.7,6.9-4.5,8.4,3.3,1.4,5.4,4.9,5.4,9.3,0,6.6-4.2,10.9-10.9,10.9H404.8Zm19.5-27.6c0-4.7-1.1-6.6-3.6-6.6h-.6V21.6h.9C422.8,21.7,423.9,19.6,423.9,14.9Zm-.1,17.4c0-4.8-1.1-7.2-3.1-7.2h-1V39.4h1C422.7,39.5,423.8,37.1,423.8,32.3Z"
        />
        <path
            class="cls-3"
            d="M29.6,40.1h1.5c2.1,0,2.5-.4,2.5-2.5V5.7c0-2.1-.4-2.5-2.5-2.5H29.6V1.1H60.3V14.6H58C58,7.2,52.4,3.2,46.5,3.1c-.6,0-1.6,0-1.6.4V20c3.4,0,6.3-3.7,6.3-8.8h2.3V31.1H51.2c0-5.9-2.9-9-6.3-9V37.5c0,2,.4,2.8,2.3,2.8,6.1,0,11.4-8.2,11.7-14.5h2.3l-.5,16.4h-31Z"
        />
        <path class="cls-3" d="M70.7,40.3H72c1.9,0,2.2-.4,2.2-2.2V9.8c0-1.9-.4-2.2-2.2-2.2H70.7v-2H88V7.5H86.6c-1.9,0-2.2.4-2.2,2.2V37.2c0,2.5.4,3.2,1.8,3.2,4.3,0,8.7-7.5,9.2-13.1h1.9l-.4,14.9H70.7Z" />
        <path
            class="cls-3"
            d="M104.2,40.3h1.3c1.9,0,2.2-.4,2.2-2.2V9.8c0-1.9-.4-2.2-2.2-2.2h-1.3v-2h27.3v12h-2c0-6.6-5-10.1-10.2-10.2-.4,0-1.4,0-1.4.4V22.5c3,0,5.6-3.3,5.6-7.8h2V32.4h-2c0-5.3-2.6-8-5.6-8V38c0,1.8.4,2.5,2,2.5,5.4,0,10.1-7.3,10.4-12.9h2l-.4,14.6H104.3V40.3Z"
        />
        <path
            class="cls-3"
            d="M140.2,24.3c0-10.1,5.1-19.2,14.6-19.2,4.9,0,6.6,2.9,7.9,2.9.5,0,.9-.4,1-2.3h1.8V18h-1.9c-.1-5.7-3.4-10.8-7.1-10.8-4.3,0-4.9,7.2-4.9,17.1,0,11.8,1.2,16.4,4.7,16.4,3.9,0,7.6-5.8,7.8-13h2.1c-.3,5.8-2.1,15.1-11.8,15.1C145.4,42.9,140.2,34.7,140.2,24.3Z"
        />
        <path class="cls-3" d="M180.4,40.3h1.4c1.9,0,2.2-.4,2.2-2.2V7.9c0-.4-.2-.4-.5-.4-3.6,0-7.3,8.2-7.3,13.2h-2V5.6h30V20.7h-2c0-5-3.7-13.2-7.3-13.2-.3,0-.5,0-.5.4V38.1c0,1.9.4,2.2,2.2,2.2H198v1.9H180.4V40.3Z" />
        <path class="cls-3" d="M212,40.3h1.4c1.8,0,2.2-.4,2.2-1.9V9.8c0-1.9-.4-2.2-2.3-2.2H212v-2h17.2V7.5h-1.4c-1.9,0-2.2.4-2.2,2.2V38.1c0,1.9.4,2.2,2.2,2.2h1.4v1.9H212Z" />
        <path class="cls-3" d="M236.5,24c0-11.2,6.7-18.9,15.2-18.9s15.2,7.9,15.2,18.8-6.7,19-15.3,19C243.2,42.9,236.5,35.1,236.5,24Zm19.1,9.4v-19c0-5.2-1.6-7.7-3.9-7.7s-3.8,2.5-3.8,7.7v19c0,5.2,1.6,7.8,3.8,7.8S255.6,38.6,255.6,33.4Z" />
        <path
            class="cls-3"
            d="M274.2,40.3h.9c1.9,0,2.3-.4,2.3-2.2V9.2c0-1.4-.5-1.7-2.2-1.7h-.9V5.6h13.5L299,27.7V9.7c0-2-.4-2.2-2.2-2.2h-.9V5.6h8.4V7.5h-.9c-1.6,0-2.1.3-2.1,2.2L301,42.2h-7.2L279.4,12.7l.3,25.4c0,1.8.5,2.2,2.2,2.2H283v1.9h-8.8Z"
        />
        <path class="cls-3" d="M330.5,40.1H332c2.1,0,2.5-.4,2.5-2.5V5.7c0-2.1-.4-2.5-2.5-2.5h-1.5V1.1h19.4V3.2h-1.5c-2.1,0-2.5.4-2.5,2.5V36.6c0,2.8.5,3.6,2.1,3.6,4.8,0,9.8-8.4,10.3-14.7h2.1L360,42.2H330.5Z" />
        <path
            class="cls-3"
            d="M367,40.3h.8a3.121,3.121,0,0,0,3-2.2L381.7,5.4H386l10.8,33.3a2.25,2.25,0,0,0,2.2,1.6h.8v1.9H382.5V40.3h1.7c1,0,1.4-.6,1.4-1.2a.749.749,0,0,0-.1-.5l-2.1-7.1H375l-2,6.2a3.553,3.553,0,0,0-.2,1c0,1,.7,1.6,2.1,1.6h1.4v1.9H367Zm15.7-10.7-3.5-11.4-3.6,11.4Z"
        />
        <path
            class="cls-3"
            d="M405.4,40.3h1.4c1.9,0,2.2-.4,2.2-2.2l.1-28.8c0-1.5-.5-1.8-2.2-1.8h-1.4V5.6h18.7c7.2,0,10.6,3.6,10.6,9s-3.5,8.1-6.9,8.5v.2c3.2,0,7.8,2.5,7.8,9,0,5.5-3.2,9.9-9.9,9.9H405.4V40.3Zm19.5-25.4c0-4.7-1.2-7.5-4.6-7.5a8.6,8.6,0,0,0-1.6.1v15a10.869,10.869,0,0,0,1.8.1C423.7,22.6,424.9,19.6,424.9,14.9Zm-.2,17.4c0-4.8-1.2-8.1-4.1-8.1a12.1,12.1,0,0,0-1.9.1v16c.3,0,1.6.1,1.9.1,2.9,0,4.1-3.3,4.1-8.1Z"
        />
        <path
            class="cls-1"
            d="M35.4,3.2H43V4.5H35.7A2.768,2.768,0,0,0,35.4,3.2Zm.3,35.6H43a2.768,2.768,0,0,0,.3,1.3H35.4A3.079,3.079,0,0,0,35.7,38.8Zm.1-33.1H43V7H35.8Zm0,2.6H43V9.6H35.8Zm0,2.5H43v1.3H35.8Zm0,2.5H43v1.3H35.8Zm0,2.6H43v1.3H35.8Zm0,2.5H43v1.3H35.8Zm0,2.5H43v1.3H35.8Zm0,2.6H43v1.3H35.8Zm0,2.5H43v1.3H35.8Zm0,2.6H43v1.3H35.8Zm0,2.5h7.1v1.3H35.8Zm0,2.5h7.1v1.3H35.8Zm0,2.6h7.1v1.3H35.8ZM51.5,18.1v2.3H49A6.141,6.141,0,0,0,51.5,18.1ZM49,21.7h2.5v2.2A5.9,5.9,0,0,0,49,21.7Zm5.9,17.1h3.8v1.3H53.4C53.9,39.7,54.4,39.2,54.9,38.8ZM54.4,3.2h3.9V4.3H55.9A14.309,14.309,0,0,0,54.4,3.2ZM57,36.3h1.8v1.3H56A6.42,6.42,0,0,0,57,36.3ZM56.9,5.4h1.4v2A14.29,14.29,0,0,0,56.9,5.4Zm1.9,28v1.8h-1A16.179,16.179,0,0,0,58.8,33.4Z"
        />
        <path
            class="cls-1"
            d="M75.9,7.5h7l-.3,1.2H76.2A2.663,2.663,0,0,0,75.9,7.5Zm.3,31.6h6.6l.3,1.2H75.9Zm0-29.4h6.4v1.2H76.3Zm0,2.3h6.4v1.2H76.3Zm0,2.2h6.4v1.2H76.3Zm0,2.3h6.4v1.2H76.3Zm0,2.3h6.4V20H76.3Zm0,2.2h6.4v1.2H76.3Zm0,2.3h6.4v1.2H76.3Zm0,2.2h6.4v1.2H76.3Zm0,2.3h6.4V29H76.3Zm0,2.3h6.4v1.2H76.3Zm0,2.2h6.4v1.2H76.3Zm0,2.3h6.4v1.2H76.3Zm0,2.2h6.4V38H76.3Zm16,2.3h3v1.2H91A6.815,6.815,0,0,0,92.2,39.1Zm1.7-2.2h1.3v1.2H93.1A8.342,8.342,0,0,0,93.9,36.9Zm1.3-2.3v1.3h-.8A5.67,5.67,0,0,0,95.2,34.6Z"
        />
        <path
            class="cls-1"
            d="M109.4,7.5h6.7V8.7h-6.4A2.663,2.663,0,0,0,109.4,7.5Zm.3,31.6h6.4a2.663,2.663,0,0,0,.3,1.2h-7Zm.1-29.4h6.3v1.2h-6.3Zm0,2.3h6.3v1.2h-6.3Zm0,2.2h6.3v1.2h-6.3Zm0,2.3h6.3v1.2h-6.3Zm0,2.3h6.3V20h-6.3Zm0,2.2h6.3v1.2h-6.3Zm0,2.3h6.3v1.2h-6.3Zm0,2.2h6.3v1.2h-6.3Zm0,2.3h6.3V29h-6.3Zm0,2.3h6.3v1.2h-6.3Zm0,2.2h6.3v1.2h-6.3Zm0,2.3h6.3v1.2h-6.3Zm0,2.2h6.3V38h-6.3Zm14-16.1v2h-2.2A7.033,7.033,0,0,0,123.8,20.7Zm-2.3,3.2h2.2v1.9A5.74,5.74,0,0,0,121.5,23.9Zm5.2,15.2h3.4v1.2h-4.7C125.8,39.9,126.3,39.5,126.7,39.1Zm-.4-31.6h3.5v1h-2.2A6.42,6.42,0,0,0,126.3,7.5Zm2.3,29.4h1.6v1.2h-2.5Zm0-27.5h1.2v1.8Zm1.7,24.9v1.6h-.9C129.7,35.4,130,34.9,130.3,34.3Z"
        />
        <path
            class="cls-1"
            d="M142.1,24.3v-.9h7.8v1.2h-7.8Zm.2-3.2H150v1.2h-7.8Zm-.1,4.7H150V27h-7.7A4.869,4.869,0,0,1,142.2,25.8Zm.1,2.2H150v1.2h-7.4Zm.4-9.2H150V20h-7.5Zm.1,11.6h7.3a4.869,4.869,0,0,0,.1,1.2h-7a5.638,5.638,0,0,1-.4-1.2Zm.5-13.9h6.9a4.869,4.869,0,0,0-.1,1.2h-7.2c.2-.5.3-.9.4-1.2Zm.2,16.2h6.7l.1,1.2H144C143.8,33.5,143.7,33.1,143.5,32.7Zm.8-18.6h6.2a4.869,4.869,0,0,0-.1,1.2h-6.6Zm.3,20.9h5.9a5.019,5.019,0,0,0,.2,1.2h-5.4A7.459,7.459,0,0,0,144.6,35Zm1-23.2h5.2a5.019,5.019,0,0,0-.2,1.2h-5.7A7.459,7.459,0,0,1,145.6,11.8Zm.8,25.5h4.7a5.638,5.638,0,0,0,.4,1.2h-3.9A3.447,3.447,0,0,1,146.4,37.3Zm1.4-27.9h3.7l-.4,1.2h-4.5Zm1.5,30.2h2.6a7.459,7.459,0,0,0,.7,1.2A9.333,9.333,0,0,1,149.3,39.6Zm3.5-32.5c-.3.4-.5.8-.8,1.2h-2.5A9.333,9.333,0,0,1,152.8,7.1Zm10,2.2h.1a1.689,1.689,0,0,0,1-.3v2.3A12.81,12.81,0,0,0,162.8,9.3Z"
        />
        <path
            class="cls-1"
            d="M176.2,7.5h3.5c-.4.4-.7.8-1.1,1.2h-2.4Zm0,2.3h1.6c-.6.8-1.1,1.6-1.6,2.4Zm9.7,29.3h6.8a2.663,2.663,0,0,0,.3,1.2h-7.4Zm0-31.2V7.5h6.7V8.7H186Zm0,1.8h6.6v1.2h-6.6Zm0,2.3h6.6v1.2h-6.6Zm0,2.2h6.6v1.2h-6.6Zm0,2.3h6.6v1.2h-6.6Zm0,2.3h6.6V20h-6.6Zm0,2.2h6.6v1.2h-6.6Zm0,2.3h6.6v1.2h-6.6Zm0,2.2h6.6v1.2h-6.6Zm0,2.3h6.6V29h-6.6Zm0,2.3h6.6v1.2h-6.6Zm0,2.2h6.6v1.2h-6.6Zm0,2.3h6.6v1.2h-6.6Zm0,2.2h6.6V38h-6.6Zm13-29.3h3.5V8.7H200A11.985,11.985,0,0,1,198.9,7.5Zm1.9,2.3h1.6v2.4A14.309,14.309,0,0,0,200.8,9.8Z"
        />
        <path
            class="cls-1"
            d="M217.1,7.5h7l-.3,1.2h-6.5A1.721,1.721,0,0,0,217.1,7.5Zm.3,31.6h6.5a2.663,2.663,0,0,0,.3,1.2h-7a5.019,5.019,0,0,0,.2-1.2Zm0-29.4h6.3v1.2h-6.3Zm0,2.3h6.3v1.2h-6.3Zm0,2.2h6.3v1.2h-6.3Zm0,2.3h6.3v1.2h-6.3Zm0,2.3h6.3V20h-6.3Zm0,2.2h6.3v1.2h-6.3Zm0,2.3h6.3v1.2h-6.3Zm0,2.2h6.3v1.2h-6.3Zm0,2.3h6.3V29h-6.3Zm0,2.2h6.3v1.2h-6.3Zm0,2.3h6.3v1.2h-6.3Zm0,2.3h6.3v1.2h-6.3Zm0,2.2h6.3V38h-6.3Z"
        />
        <path
            class="cls-1"
            d="M238.5,23.4h7.6v1.2h-7.6Zm.2-2.2h7.4v1.2h-7.5Zm-.1,4.4h7.5v1.2h-7.4Zm.5-6.6h7v1.2h-7.3Zm-.3,8.8h7.3V29h-7Zm.8-11h6.5V18h-6.8ZM239.3,30h6.8v1.2h-6.4Zm1.3-15.5h5.5v1.2h-6Zm-.5,17.7h6v1.2h-5.4Zm1.8-19.9h4.3l-.1,1.2h-4.9C241.4,13.1,241.7,12.7,241.9,12.3Zm-.7,22.1h4.9l.1,1.2H242a8.342,8.342,0,0,1-.8-1.2Zm2.7-24.3h2.6c-.1.4-.1.8-.2,1.2h-3.5a11.985,11.985,0,0,1,1.1-1.2Zm-1.1,26.5h3.5a5.019,5.019,0,0,0,.2,1.2h-2.6A11.985,11.985,0,0,1,242.8,36.6Zm4.5-28.7a6.117,6.117,0,0,0-.5,1.2h-1.7A9.409,9.409,0,0,1,247.3,7.9Zm-2.1,30.9h1.7a6.117,6.117,0,0,0,.5,1.2A9.409,9.409,0,0,1,245.2,38.8Zm11.6,0h1.7a11.252,11.252,0,0,1-2.1,1.2A5.638,5.638,0,0,1,256.8,38.8Zm-.5-30.9a9.409,9.409,0,0,1,2.2,1.2h-1.7A6.117,6.117,0,0,0,256.3,7.9Zm.8,2.2h2.6a11.985,11.985,0,0,1,1.1,1.2h-3.5A5.019,5.019,0,0,0,257.1,10.1Zm.2,26.5h3.5c-.4.4-.7.8-1.1,1.2h-2.6A5.019,5.019,0,0,0,257.3,36.6Zm.1-24.3h4.3c.3.4.5.8.8,1.2h-4.9Zm.1,22.1h4.9a8.342,8.342,0,0,1-.8,1.2h-4.2Zm0-19.9H263a6.117,6.117,0,0,1,.5,1.2h-6Zm0,2.3H264l.4,1.2h-6.8Zm0,2.2h7l.2,1.2h-7.3Zm0,2.2H265l.1,1.2h-7.5Zm0,2.2h7.6v1.2h-7.6Zm0,2.2H265l-.1,1.2h-7.4Zm0,2.2h7.3l-.2,1.2h-7Zm0,2.2h6.8l-.3,1.2h-6.4Zm0,2.2h6a6.117,6.117,0,0,1-.5,1.2h-5.4Z"
        />
        <path
            class="cls-1"
            d="M278.6,39.3c.2.4.4.7.6,1.1H278C278.2,40,278.4,39.7,278.6,39.3Zm.8-31.2c-.1-.2-.2-.3-.3-.5h7.8l.6,1.2h-7.8Zm.8,1.7H288l.6,1.2h-7.8Zm1.1,2.2h7.9l.6,1.2h-7.9Zm1.1,2.3h7.9l.6,1.2H283Zm1.1,2.3h7.9l.6,1.1h-7.9Zm1.1,2.2h7.9l.6,1.2h-7.9Zm1.1,2.3h8l.6,1.2h-8Zm1.1,2.2h8l.6,1.2h-8Zm1.1,2.3H296l.6,1.2h-8.1Zm1.1,2.2h8.1l.6,1.2h-8.1Zm1.1,2.3h8.1l.6,1.2h-8.1Zm1.1,2.3h8.1v1.2h-7.5Zm1.1,2.2h7v1.2H293Zm1.1,2.3h5.9V38H294Zm1.1,2.2h4.8v1.2h-4.2Zm5.1-31.7h1.3a2.384,2.384,0,0,0-.6,1.1,4.129,4.129,0,0,0-.7-1.1Z"
        />
        <path
            class="cls-2"
            d="M336.4,3.2h7.9a2.768,2.768,0,0,0-.3,1.3h-7.3C336.6,4,336.5,3.6,336.4,3.2Zm.3,35.6h7.4a6.468,6.468,0,0,0,.4,1.3h-8.1c.1-.5.2-.9.3-1.3Zm.1-33.1h7.1V7h-7.1Zm0,2.6h7.1V9.6h-7.1Zm0,2.5h7.1v1.3h-7.1Zm0,2.5h7.1v1.3h-7.1Zm0,2.6h7.1v1.3h-7.1Zm0,2.5h7.1v1.3h-7.1Zm0,2.5h7.1v1.3h-7.1Zm0,2.6h7.1v1.3h-7.1Zm0,2.5h7.1v1.3h-7.1Zm0,2.6h7.1v1.3h-7.1Zm0,2.5h7.1v1.3h-7.1Zm0,2.5h7.1v1.3h-7.1Zm0,2.6h7.1v1.3h-7.2Zm18,2.5h3.3v1.4h-4.6c.4-.4.8-.9,1.3-1.4Zm1.9-2.5h1.4v1.3h-2.4A6.42,6.42,0,0,0,356.7,36.2Zm1.4-2.6v1.5h-1A13.029,13.029,0,0,0,358.1,33.6Z"
        />
        <path
            class="cls-2"
            d="M371.8,39a3.506,3.506,0,0,0,.6,1.4h-1.8A5.263,5.263,0,0,0,371.8,39Zm9.1-24.9H387l.4,1.2h-6.9Zm-.2,2.2h7l.4,1.2h-7Zm1-4.5h4.6l.4,1.2h-5.3Zm-.3,6.8h7.1l.4,1.2h-7.1Zm1-9.1h3.1l.4,1.2H382ZM382,20.9h7.1l.4,1.2h-7.1Zm1.1-13.6h1.6l.4,1.2h-2.4Zm-.4,15.9h7.1l.4,1.2H383Zm.7,2.2h7.2l.4,1.2h-7.2Zm.7,2.3h7.2l.4,1.2h-7.3Zm.7,2.3h7.3l.4,1.2h-7.3Zm.7,2.3h7.3l.4,1.2h-7.3Zm.7,2.3h7.4l.4,1.2h-7.4Zm.7,2.2h7.4l.4,1.2h-7.4Zm.5,2.3H395v.1a3.128,3.128,0,0,0,.5,1h-8.4a2.016,2.016,0,0,0,.3-1.1Z"
        />
        <path
            class="cls-2"
            d="M410.9,39.1H417v1.2h-6.3A5.019,5.019,0,0,1,410.9,39.1Zm-.2-31.6h6.2V8.7H411c-.1-.5-.2-.8-.3-1.2Zm.2,22.6h6v1.2h-6Zm0,2.2h6v1.2h-6Zm0,2.3h6v1.2h-6Zm0,2.3h6v1.2h-6Zm0-20.4h5.9v1.2H411Zm0,2.3h5.9V20H411Zm.1,2.3h5.9v1.2H411Zm0,2.2h5.9v1.2H411Zm0,2.3h5.9v1.2H411Zm0,2.3h5.9V29H411Zm0-18.1h5.9V11H411Zm0,2.3h5.9v1.2H411Zm0,2.2h5.9v1.2H411Zm14.4,25h5a11.282,11.282,0,0,1-5.7,1.2C424.9,40.1,425.2,39.7,425.4,39.3Zm-.7-15.2a11.236,11.236,0,0,1,5.4,1.2h-4.7a7.459,7.459,0,0,0-.7-1.2Zm.9-2.7h3.5a9.16,9.16,0,0,1-4.3,1.1A4.44,4.44,0,0,0,425.6,21.4Zm-.5-13.9A8.517,8.517,0,0,1,430,8.7h-4.2A7.459,7.459,0,0,1,425.1,7.5Zm1,29.6h6.5l-.9,1.2h-6a5.638,5.638,0,0,0,.4-1.2Zm-.3-10.9h5.7a4,4,0,0,1,1,1.2h-6.4a2.663,2.663,0,0,0-.3-1.2Zm.6-7.2h5.2l-.9,1.2h-4.6Zm-.3-9.2h5.2l.9,1.2h-5.7A5.638,5.638,0,0,0,426.1,9.8Zm.3,18.6h6.8c.2.4.3.8.5,1.2h-7Zm.1,6.5h7.1a5.638,5.638,0,0,1-.4,1.2h-6.9Zm.1-22.8h6l.3,1.2h-6.1Zm.2,4.7h5.9a6.117,6.117,0,0,1-.5,1.2h-5.6Zm-.2,13.8h7.2a4.869,4.869,0,0,1,.1,1.2h-7.2Zm0,2.1h7.2a4.869,4.869,0,0,1-.1,1.2h-7.2Zm.2-18.3H433v1.1h-6.1Z"
        />
        <polygon
            class="cls-4"
            points="455 23.4 451 20.5 456 20.5 454.4 15.7 458.4 18.6 459.9 13.9 461.5 18.6 465.5 15.7 463.9 20.5 468.9 20.5 464.9 23.3 468.9 26.2 463.9 26.2 465.4 31 461.5 28.1 459.9 32.8 458.4 28 454.4 31 455.9 26.2 451 26.2 455 23.4"
        />
        <path class="cls-5" d="M464.5,21.7h-3.6l-1.1-3.3c-.3.8-.8,2.3-1.1,3.3H455l2.9,2.3-1,3.4,2.9-2.2,3,2.1-1.2-3.4Z" />
        <path class="cls-2" d="M461,23.7c.3.8.5,1.6.8,2.4l-2-1.5c-.6.5-1.3,1-2,1.5l.7-2.3-2-1.6H459c.2-.7.5-1.5.8-2.3l.8,2.3H463Z" />
        <polygon class="cls-4" points="4 23.4 0 20.5 5 20.5 3.4 15.7 7.4 18.6 8.9 13.9 10.4 18.6 14.5 15.7 12.9 20.5 17.9 20.5 13.9 23.3 17.9 26.2 12.9 26.2 14.4 31 10.4 28.1 8.9 32.8 7.4 28 3.4 31 4.9 26.2 0 26.2 4 23.4" />
        <path class="cls-5" d="M13.5,21.7H9.9L8.8,18.4c-.3.8-.8,2.3-1.1,3.3H4L6.9,24l-1,3.4,2.9-2.2,3,2.1-1.2-3.4Z" />
        <path class="cls-2" d="M10,23.7c.3.8.5,1.6.8,2.4l-2-1.5c-.6.5-1.3,1-2,1.5l.7-2.3-2-1.6H8c.2-.7.5-1.5.8-2.3l.8,2.3H12Z" />
    </g>
    
</svg>
