<?xml version="1.0" encoding="UTF-8"?>
<svg id="Layer_1" xmlns="http://www.w3.org/2000/svg" viewBox="0 0 932.7 582.5">
<defs>
<style>
	.st0{fill:#F9E4C5;}
	.st1{fill:#F07763;}
	.st2{fill:#698DC5;}
	.lin{fill:none;stroke:#000000;stroke-width:0.5;stroke-miterlimit:10;}
</style>
</defs>

	<path id="AK" class="st1" d="M152.1,447.3l-.3,85.4,1.6,1,3.1,.2,1.5-1.1h2.6l.2,2.9,7,6.8,.5,2.6,3.4-1.9,.6-.2,.3-3.1,1.5-1.6,1.1-.2,1.9-1.5,3.1,2.1,.6,2.9,1.9,1.1,1.1,2.4,3.9,1.8,3.4,6,2.7,3.9,2.3,2.7,1.5,3.7,5,1.8,5.2,2.1,1,4.4,.5,3.1-1,3.4-1.8,2.3-1.6-.8-1.5-3.1-2.7-1.5-1.8-1.1-.8,.8,1.5,2.7,.2,3.7-1.1,.5-1.9-1.9-2.1-1.3,.5,1.6,1.3,1.8-.8,.8s-.8-.3-1.3-1c-.5-.6-2.1-3.4-2.1-3.4l-1-2.3s-.3,1.3-1,1c-.6-.3-1.3-1.5-1.3-1.5l1.8-1.9-1.5-1.5v-5h-.8l-.8,3.4-1.1,.5-1-3.7-.6-3.7-.8-.5,.3,5.7v1.1l-1.5-1.3-3.6-6-2.1-.5-.6-3.7-1.6-2.9-1.6-1.1v-2.3l2.1-1.3-.5-.3-2.6,.6-3.4-2.4-2.6-2.9-4.8-2.6-4-2.6,1.3-3.2v-1.6l-1.8,1.6-2.9,1.1-3.7-1.1-5.7-2.4h-5.5l-.6,.5-6.5-3.9-2.1-.3-2.7-5.8-3.6,.3-3.6,1.5,.5,4.5,1.1-2.9,1,.3-1.5,4.4,3.2-2.7,.6,1.6-3.9,4.4-1.3-.3-.5-1.9-1.3-.8-1.3,1.1-2.7-1.8-3.1,2.1-1.8,2.1-3.4,2.1-4.7-.2-.5-2.1,3.7-.6v-1.3l-2.3-.6,1-2.4,2.3-3.9v-1.8l.2-.8,4.4-2.3,1,1.3h2.7l-1.3-2.6-3.7-.3-5,2.7-2.4,3.4-1.8,2.6-1.1,2.3-4.2,1.5-3.1,2.6-.3,1.6,2.3,1,.8,2.1-2.7,3.2-6.5,4.2-7.8,4.2-2.1,1.1-5.3,1.1-5.3,2.3,1.8,1.3-1.5,1.5-.5,1.1-2.7-1-3.2,.2-.8,2.3h-1l.3-2.4-3.6,1.3-2.9,1-3.4-1.3-2.9,1.9h-3.2l-2.1,1.3-1.6,.8-2.1-.3-2.6-1.1-2.3,.6-1,1-1.6-1.1v-1.9l3.1-1.3,6.3,.6,4.4-1.6,2.1-2.1,2.9-.6,1.8-.8,2.7,.2,1.6,1.3,1-.3,2.3-2.7,3.1-1,3.4-.6,1.3-.3,.6,.5h.8l1.3-3.7,4-1.5,1.9-3.7,2.3-4.5,1.6-1.5,.3-2.6-1.6,1.3-3.4,.6-.6-2.4-1.3-.3-1,1-.2,2.9-1.5-.2-1.5-5.8-1.3,1.3-1.1-.5-.3-1.9-4,.2-2.1,1.1-2.6-.3,1.5-1.5,.5-2.6-.6-1.9,1.5-1,1.3-.2-.6-1.8v-4.4l-1-1-.8,1.5h-6.1l-1.5-1.3-.6-3.9-2.1-3.6v-1l2.1-.8,.2-2.1,1.1-1.1-.8-.5-1.3,.5-1.1-2.7,1-5,4.5-3.2,2.6-1.6,1.9-3.7,2.7-1.3,2.6,1.1,.3,2.4,2.4-.3,3.2-2.4,1.6,.6,1,.6h1.6l2.3-1.3,.8-4.4s.3-2.9,1-3.4c.6-.5,1-1,1-1l-1.1-1.9-2.6,.8-3.2,.8-1.9-.5-3.6-1.8-5-.2-3.6-3.7,.5-3.9,.6-2.4-2.1-1.8-1.9-3.7,.5-.8,6.8-.5h2.1l1,1h.6l-.2-1.6,3.9-.6,2.6,.3,1.5,1.1-1.5,2.1-.5,1.5,2.7,1.6,5,1.8,1.8-1-2.3-4.4-1-3.2,1-.8-3.4-1.9-.5-1.1,.5-1.6-.8-3.9-2.9-4.7-2.4-4.2,2.9-1.9h3.2l1.8,.6,4.2-.2,3.7-3.6,1.1-3.1,3.7-2.4,1.6,1,2.7-.6,3.7-2.1,1.1-.2,1,.8,4.5-.2,2.7-3.1h1.1l3.6,2.4,1.9,2.1-.5,1.1,.6,1.1,1.6-1.6,3.9,.3,.3,3.7,1.9,1.5,7.1,.6,6.3,4.2,1.5-1,5.2,2.6,2.1-.6,1.9-.8,4.8,1.9,4.5,2.7Zm-115.1,28.9l2.1,5.3-.2,1-2.9-.3-1.8-4-1.8-1.5h-2.4l-.2-2.6,1.8-2.4,1.1,2.4,1.5,1.5,2.8,.6Zm-2.6,33.5l3.7,.8,3.7,1,.8,1-1.6,3.7-3.1-.2-3.4-3.6-.1-2.7Zm-20.7-14.1l1.1,2.6,1.1,1.6-1.1,.8-2.1-3.1v-1.9h1ZM0,568.7l3.4-2.3,3.4-1,2.6,.3,.5,1.6,1.9,.5,1.9-1.9-.3-1.6,2.7-.6,2.9,2.6-1.1,1.8-4.4,1.1-2.7-.5-3.7-1.1-4.4,1.5-1.6,.3-1.1-.7Zm48.9-4.5l1.6,1.9,2.1-1.6-1.5-1.3-2.2,1Zm2.9,3l1.1-2.3,2.1,.3-.8,1.9h-2.4v.1Zm23.6-1.9l1.5,1.8,1-1.1-.8-1.9-1.7,1.2Zm8.8-12.5l1.1,5.8,2.9,.8,5-2.9,4.4-2.6-1.6-2.4,.5-2.4-2.1,1.3-2.9-.8,1.6-1.1,1.9,.8,3.9-1.8,.5-1.5-2.4-.8,.8-1.9-2.7,1.9-4.7,3.6-4.8,2.9-1.4,1.1Zm42.3-19.8l2.4-1.5-1-1.8-1.8,1,.4,2.3Z"/>

	<path id="AL" class="st1" d="M619.5,460l.6,.2,1.3-2.7,1.5-4.4,2.3,.6,3.1,6v1l-2.7,1.9,2.7,.3,5.2-2.5-.3-7.6-2.5-1.8-2-2,.4-4,10.5-1.5,25.7-2.9,6.7-.6,5.6,.1-.5-2.2-1.5-.8-.9-1.1,1-2.6-.4-5.2-1.6-4.5,.8-5.1,1.7-4.8-.2-1.7-1.8-.7-.5-3.6-2.7-3.4-2-6.5-1.4-6.7-1.8-5-3.8-16-3.5-7.9-.8-5.6,.1-2.2-9,.8-23.4,2.2-12.2,.8-.2,6.4,.2,16.7-.7,31-.3,14.1,2.8,18.8,1.6,14.7h2.9Z"/>

	<path id="AR" class="st1" d="M578.3,339.7l-6.4-.7,.9-3.1,3.1-2.6,.6-2.3-1.8-2.9-31.9,1.2-23.3,.7-23.6,.3,1.5,6.9,.1,8.5,1.4,10.9,.3,38.2,2.1,1.6,3-1.2,2.9,1.2,.4,10.1,25.2-.2,26.8-.8,.9-1.9-.3-3.8-1.7-3.1,1.5-1.4-1.4-2.2,.7-2.4,1.1-5.9,2.7-2.3-.8-2.2,4-5.6,2.5-1.1-.1-1.7-.5-1.7,2.9-5.8,2.5-1.1,.2-3.3,2.1-1.4,.9-4.1-1.4-4,4.2-2.4,.3-2.1,1.2-4.2,.9-3.1-3.7,1Z"/>

	<path id="AZ" class="st0" d="M126.1,383.3l-.3,1.5,.5,1,18.9,10.7,12.1,7.6,14.7,8.6,16.8,10,12.3,2.4,25.4,2.7,6-39.6,7-53.1,4.4-31-24.6-3.6-60.7-11-.2,1.1-2.6,16.5-2.1,3.8-2.8-.2-1.2-2.6-2.6-.4-1.2-1.1-1.1,.1-2.1,1.7-.3,6.8-.3,1.5-.5,12.5-1.5,2.4-.4,3.3,2.8,5,1.1,5.5,.7,1.1,1.1,.9-.4,2.4-1.7,1.2-3.4,1.6-1.6,1.8-1.6,3.6-.5,4.9-3,2.9-1.9,.9-.1,5.8-.6,1.6,.5,.8,3.9,.4-.9,3-1.7,2.4-3.7,.4-2.6,2.2Z"/>

	<path id="CA" class="st2" d="M113.7,379.5l-19.7-2.7-10-1.5-.5-1.8v-9.4l-.3-3.2-2.6-4.2-.8-2.3-3.9-4.2-2.9-4.7-2.7-.2-3.2-.8-.3-1,1.5-.6-.6-3.2-1.5-2.1-4.8-.8-3.9-2.1-1.1-2.3-2.6-4.8-2.9-3.1h-2.9l-3.9-2.1-4.5-1.8-4.2-.5-2.4-2.7,.5-1.9,1.8-7.1,.8-1.9v-2.4l-1.6-1-.5-2.9-1.5-2.6-3.4-5.8-1.3-3.1-1.5-4.7-1.6-5.3-3.2-4.4-.5-2.9,.8-3.9h1.1l2.1-1.6,1.1-3.6-1-2.7-2.7-.5-1.9-2.6-2.1-3.7-.2-8.2,.6-1.9,.6-2.3,.5-2.4-5.7-6.3v-2.1l.3-.5,.3-3.2-1.3-4-2.3-4.8-2.7-4.5-1.8-3.9,1-3.7,.6-5.8,1.8-3.1,.3-6.5-1.1-3.6-1.6-4.2-2.7-4.2,.8-3.2,1.5-4.2,1.8-.8,.3-1.1,3.1-2.6,5.2-11.8,.2-7.4,1.69-4.9,38.69,11.8,25.6,6.6-8,31.3-8.67,33.1,12.63,19.2,42.16,62.3,17.1,26.1-.4,3.1,2.8,5.2,1.1,5.4,1,1.5,.7,.6-.2,1.4-1.4,1-3.4,1.6-1.9,2.1-1.7,3.9-.5,4.7-2.6,2.5-2.3,1.1-.1,6.2-.6,1.9,1,1.7,3,.3-.4,1.6-1.4,2-3.9,.6-14.2-.9Zm-73.9-48.9l1.3,1.5-.2,1.3-3.2-.1-.6-1.2-.6-1.5h3.3Zm1.9,0l1.2-.6,3.6,2.1,3.1,1.2-.9,.6-4.5-.2-1.6-1.6-.9-1.5Zm20.7,19.8l1.8,2.3,.8,1,1.5,.6,.6-1.5-1-1.8-2.7-2-1.1,.2v1.2h.1Zm-1.4,8.7l1.8,3.2,1.2,1.9-1.5,.2-1.3-1.2s-.7-1.5-.7-1.9v-2.2h.5Z"/>

	<path id="CO" class="st0" d="M371.2,229.1l-36-3.5-79.1-8.6-2.2,22.1-7,50.4-1.9,13.7,34,3.9,37.5,4.4,34.7,3,14.3,.6,5.7-86Z"/>

	<path id="CT" class="st2" d="M843,184.5l3.6-3.2,1.9-2.1,.8,.6,2.7-1.5,5.2-1.1,7-3.5-.6-4.2-.8-4.4-1.6-6-4.3,1.1-21.8,4.7,.6,3.1,1.5,7.3v8.3l-.9,2.1,1.7,2.2,5-3.4Z"/>

	<path id="DC2" class="st2" d="M789.99,245.1 L791.55,243.13 L794,244.71 L792.52,247.28 L791.63,245.97 L789.99,245.1Z"/>
	
	<path id="DE" class="st2" d="M825.4,240.8l-1,.5-3.6-2.4-1.8-4.7-1.9-3.6-2.3-1-2.1-3.6,.5-2,.5-2.3,.1-1.1-.6,.1-1.7,1-2,1.7-.2,.3,1.4,4.1,2.3,5.6,3.7,16.1,5-.3,6-1.1-2.3-7.3Z"/>

	<path id="FL" class="st0" d="M741.2,438.8l-5.2-.7-.7,.8,1.5,4.4-.4,5.2-4.1-1-.2-2.8h-4.1l-5.3,.7-32.4,1.9-8.2-.3-1.7-1.7-2.5-4.2h-5.9l-6.6,.5-35.4,4.2-.3,2.8,1.6,1.6,2.9,2,.3,8.4,3.3-.6,6-2.1,6-.5,4.4-.6,7.6,1.8,8.1,3.9,1.6,1.5,2.9,1.1,1.6,1.9,.3,2.7,3.2-1.3h3.9l3.6-1.9,3.7-3.6,3.1,.2,.5-1.1-.8-1,.2-1.9,4-.8h2.6l2.9,1.5,4.2,1.5,2.4,3.7,2.7,1,1.1,3.4,3.4,1.6,1.6,2.6,1.9,.6,5.2,1.3,1.3,3.1,3,3.7v9.5l-1.5,4.7,.3,2.7,1.3,4.8,1.8,4,.8-.5,1.5-4.5-2.6-1-.3-.6,1.6-.6,4.5,1,.2,1.6-3.2,5.5-2.1,2.4,3.6,3.7,2.6,3.1,2.9,5.3,2.9,3.9,2.1,5,1.8,.3,1.6-2.1,1.8,1.1,2.6,4,.6,3.6,3.1,4.4,.8-1.3,3.9,.3,3.6,2.3,3.4,5.2,.8,3.4,.3,2.9,1.1,1,1.3,.5,2.4-1,1.5-1.6,3.9-.2,3.1-1.5,2.7-3.2-.5-1.9-.3-2.4,.6-1.9-.3-1.9,2.4-1.3,.3-3.4-.6-1.8-.5-12-1.3-7.6-4.5-8.2-3.6-5.8-2.6-5.3-2.9-2.9-2.9-7.4,.7-1.4,1.1-1.3-1.6-2.9-4-3.7-4.8-5.5-3.7-6.3-5.3-9.4-3.7-9.7-2.3-7.3-5.2-.3Zm17.7,132.7l2.4-.6,1.3-.2,1.5-2.3,2.3-1.6,1.3,.5,1.7,.3,.4,1.1-3.5,1.2-4.2,1.5-2.3,1.2-.9-1.1Zm13.5-5l1.2,1.1,2.7-2.1,5.3-4.2,3.7-3.9,2.5-6.6,1-1.7,.2-3.4-.7,.5-1,2.8-1.5,4.6-3.2,5.3-4.4,4.2-3.4,1.9-2.4,1.5Z"/>

	<path id="GA" class="st0" d="M741.2,437.8l-5.6-.7-1.4,1.6,1.6,4.7-.3,3.9-2.2-.6-.2-3h-5.2l-5.3,.7-32.3,1.9-7.7-.3-1.4-1.2-2.5-4.3-.8-3.3-1.6-.9-.5-.5,.9-2.2-.4-5.5-1.6-4.5,.8-4.9,1.7-4.8-.2-2.5-1.9-.7-.4-3.2-2.8-3.5-1.9-6.2-1.5-7-1.7-4.8-3.8-16-3.5-8-.8-5.3,.1-2.3,3.3-.3,13.6-1.6,18.6-2,6.3-1.1,.5,1.4-2.2,.9-.9,2.2,.4,2,1.4,1.6,4.3,2.7,3.2-.1,3.2,4.7,.6,1.6,2.3,2.8,.5,1.7,4.7,1.8,3,2.2,2.3,3,2.3,1.3,2,1.8,1.4,2.7,2.1,1.9,4.1,1.8,2.7,6,1.7,5.1,2.8,.7,2.1,1.9,2,5.7,2.9,1.6,1.7-.8,.4,1.2-3.3,6.2,.5,2.6-1.5,4.2-2.3,10,.8,6.3-5.1-.3Z"/>

	<path id="HI" class="st2" d="M224.1,512.9l1.9-3.6,2.3-.3,.3,.8-2.1,3.1h-2.4Zm10.2-3.7l6.1,2.6,2.1-.3,1.6-3.9-.6-3.4-4.2-.5-4,1.8-1,3.7Zm30.7,10l3.7,5.5,2.4-.3,1.1-.5,1.5,1.3,3.7-.2,1-1.5-2.9-1.8-1.9-3.7-2.1-3.6-5.8,2.9-.7,1.9Zm20.2,8.9l1.3-1.9,4.7,1,.6-.5,6.1,.6-.3,1.3-2.6,1.5-4.4-.3-5.4-1.7Zm5.3,5.2l1.9,3.9,3.1-1.1,.3-1.6-1.6-2.1-3.7-.3v1.2Zm7-1.2l2.3-2.9,4.7,2.4,4.4,1.1,4.4,2.7v1.9l-3.6,1.8-4.8,1-2.4-1.5-5-6.5Zm16.6,15.6l1.6-1.3,3.4,1.6,7.6,3.6,3.4,2.1,1.6,2.4,1.9,4.4,4,2.6-.3,1.3-3.9,3.2-4.2,1.5-1.5-.6-3.1,1.8-2.4,3.2-2.3,2.9-1.8-.2-3.6-2.6-.3-4.5,.6-2.4-1.6-5.7-2.1-1.8-.2-2.6,2.3-1,2.1-3.1,.5-1-1.6-1.8-.1-2Z"/>

	<path id="IA" class="st1" d="M547.8,177.2l2.1,2.1,.3,.7-2,3,.3,4,2.6,4.1,3.1,1.6,2.4,.3,.9,1.8,.2,2.4,2.5,1,.9,1.1,.5,1.6,3.8,3.3,.6,1.9-.7,3-1.7,3.7-.6,2.4-2.1,1.6-1.6,.5-5.7,1.5-1.6,4.8,.8,1.8,1.7,1.5-.2,3.5-1.9,1.4-.7,1.8v2.4l-1.4,.4-1.7,1.4-.5,1.7,.4,1.7-1.3,1-2.3-2.7-1.4-2.8-8.3,.8-10,.6-49.2,1.2-1.6-4.3-.4-6.7-1.4-4.2-.7-5.2-2.2-3.7-1-4.6-2.7-7.8-1.1-5.6-1.4-1.9-1.3-2.9,1.7-3.8,1.2-6.1-2.7-2.2-.3-2.4,.7-2.4,1.8-.3,61.1-.6,21.2-.7,.9,3.3Z"/>

	<path id="ID" class="st1" d="M166.3,21.23l-4.8,17.41-4.5,20.86-3.4,16.22-.4,9.67,1.2,4.44,3.5,2.66-.2,3.91-3.9,4.4-4.5,6.6-.9,2.9-1.2,1.1-1.8,.8-4.3,5.3-.4,3.1-.4,1.1,.6,1,2.6-.1,1.1,2.3-2.4,5.8-1.2,4.2-8.8,35.3,20.7,4.5,39.5,7.9,34.8,6.1,4.9-29.2,3.8-24.1-2.7-2.4-.4-2.6-.8-1.1-2.1,1-.7,2.6-3.2,.5-3.9-1.6-3.8,.1-2.5,.7-3.4-1.5-2.4,.2-2.4,2-2-1.1-.7-4,.7-2.9-2.5-2.9-3.3-2.6-2.7-13.1-.1-4.7-.3-.1-.2,.4-5.1,3.5-1.7-.2-2.9-3.4-.2-3.1,7-17.13-.4-1.94-3.4-1.15-.6-1.18-2.6-3.46-4.6-10.23-3.2-1.53-2-4.95,1.3-4.63-3.2-7.58,4.4-21.52-13-2.57Z"/>

	<path id="IL" class="st2" d="M609.7,207.9l-.8-2.6-1.3-3.7-1.6-1.8-1.5-2.6-.4-5.5-15.9,1.8-17.4,1h-12.3l.2,2.1,2.2,.9,1.1,1.4,.4,1.4,3.9,3.4,.7,2.4-.7,3.3-1.7,3.7-.8,2.7-2.4,1.9-1.9,.6-5.2,1.3-1.3,4.1,.6,1.1,1.9,1.8-.2,4.3-2.1,1.6-.5,1.3v2.8l-1.8,.6-1.4,1.2-.4,1.2,.4,2-1.6,1.3-.9,2.8,.3,3.9,2.3,7,7,7.6,5.7,3.7v4.4l.7,1.2,6.6,.6,2.7,1.4-.7,3.5-2.2,6.2-.8,3,2,3.7,6.4,5.3,4.8,.8,2.2,5.1,2,3.4-.9,2.8,1.5,3.8,1.7,2.1,1.6-.3,1-2.2,2.4-1.7,2.8-1,6.1,2.5,.5-.2v-1.1l-1.2-2.7,.4-2.8,2.4-1.6,3.4-1.2-.5-1.3-.8-2,1.2-1.3,1-2.7v-4l.4-4.9,2.5-3,1.8-3.8,2.5-4-.5-5.3-1.8-3.2-.3-3.3,.8-5.3-.7-7.2-1.1-15.8-1.4-15.3-.9-11.7-.2-.9Z"/>

	<path id="IN" class="st1" d="M613.9,209.7l1.5,1,1.1-.3,2.1-1.9,2.5-1.8,14.3-1.1,18.4-1.8,1.6,15.5,4.9,42.6-.6,2.9,1.3,1.6,.2,1.3-2.3,1.6-3.6,1.7-3.2,.4-.5,4.8-4.7,3.6-2.9,4,.2,2.4-.5,1.4h-3.5l-1.4-1.7-5.2,3,.2,3.1-.9,.2-.5-.9-2.4-1.7-3.6,1.5-1.4,2.9-1.2-.6-1.6-1.8-4.4,.5-5.7,1-2.5,1.3v-2.6l.4-4.7,2.3-2.9,1.8-3.9,2.7-4.2-.5-5.8-1.8-3.1-.3-3.2,.8-5.3-.7-7.1-.9-12.6-2.5-30.1,3,.8Z"/>

	<path id="KS" class="st1" d="M476.9,253.1l-43.8-.6-40.6-1.2-21.7-.9-4.3,64.8,24.3,1,44.7,2.1,46.3,.6,12.6-.3,.7-35-1.2-11.1-2.5-2-2.4-3-2.3-3.6,.6-3,1.7-1.4v-2.1l-.8-.7-2.6-.2-3.5-3.4h-5.2Z"/>

	<path id="KY" class="st1" d="M598.2,325.4l12.6-.7,.1-4.1h4.3l30.4-3.2,45.1-4.3,5.6-3.6,3.9-2.1,.1-1.9,6-7.8,4.1-3.6,2.1-2.4-3.3-2-2.5-2.7-3-3.8-.5-2.2-2.6-1.4-.9-1.9-.2-6.1-2.6-2-1.9-1.1-.5-2.3-1.3,.2-2,1.2-2.5,2.7-1.9-1.7-2.5-.5-2.4,1.4h-2.3l-1.8-2-5.6-.1-1.8-4.5-2.9-1.5-2.1,.8-4.2,.2-.5,2.1,1.2,1.5,.3,2.1-2.8,2-3.8,1.8-2.6,.4-.5,4.5-4.9,3.6-2.6,3.7,.2,2.2-.9,2.3-4.5-.1-1.3-1.3-3.9,2.2,.2,3.3-2.4,.6-.8-1.4-1.7-1.2-2.7,1.1-1.8,3.5-2.2-1-1.4-1.6-3.7,.4-5.6,1-2.8,1.3-1.2,3.4-1,1,1.5,3.7-4.2,1.4-1.9,1.4-.4,2.2,1.2,2.4v2.2l-1.6,.4-6.1-2.5-2.3,.9-2,1.4-.8,1.8,1.7,2.4-.9,1.8-.1,3.3-2.4,1.3-2.1,1.7,11.1-.2Z"/>

	<path id="LA" class="st1" d="M517.9,479.5l8.1-.3,10.3,3.6,6.5,1.1,3.7-1.5,3.2,1.1,3.2,1,.8-2.1-3.2-1.1-2.6,.5-2.7-1.6,.8-1.5,3.1-1,1.8,1.5,1.8-1,3.2,.6,1.5,2.4,.3,2.3,4.5,.3,1.8,1.8-.8,1.6-1.3,.8,1.6,1.6,8.4,3.6,3.6-1.3,1-2.4,2.6-.6,1.8-1.5,1.3,1,.8,2.9-2.3,.8,.6,.6,3.4-1.3,2.3-3.4,.8-.5-2.1-.3,.8-1.6-.2-1.5,2.1-.5,1.1-1.3,.6,.8,.6,3.1,4.2,.6,4,1.9,1,1.5h2.9l1.1,1,2.3-3.1v-1.5h-1.3l-3.4-2.7-5.8-.8-3.2-2.3,1.1-2.7,2.3,.3,.2-.6-1.8-1v-.5h3.2l1.8-3.1-1.3-1.9-.3-2.7-1.5,.2-1.9,2.1-.6,2.6-3.1-.6-1-1.8,1.8-1.9,1.9-1.7-2.2-6.5-3.4-3.4,1-7.3-.2-.5-1.3,.2-33.1,1.4-.8-2.4,.8-8.5,8.6-14.8-.9-2.6,1.4-.4,.4-2-2.2-2,.1-1.9-2-4.5-.4-5.1,.1-.7-26.4,.8-25.2,.1,.4,9.7,.7,9.5,.5,3.7,2.6,4.5,.9,4.4,4.3,6,.3,3.1,.6,.8-.7,8.3-2.8,4.6,1.2,2.4-.5,2.6-.8,7.3-1.3,3,.2,3.7,4.7-1.5Z"/>

	<path id="MA" class="st2" d="M878.5,166.1l-.5-2.3,.8-1.5,2.9-1.5,.8,3.1-.5,1.8-2.4,1.5v1l1.9-1.5,3.9-4.5,3.9-1.9,4.2-1.5-.3-2.4-1-2.9-1.9-2.4-1.8-.8-2.1,.2-.5,.5,1,1.3,1.5-.8,2.1,1.6,.8,2.7-1.8,1.8-2.3,1-3.6-.5-3.9-6-2.3-2.6h-1.8l-1.1,.8-1.9-2.6,.3-1.5,2.4-5.2-2.9-4.4-3.7,1.8-1.8,2.9-18.3,4.7-13.8,2.5-.6,10.6,.7,4.9,22-4.8,11.2-2.8,2,1.6,3.4,4.3,2.9,4.7,2.1-.9Zm12.5,1.4l2.2-.7,.5-1.7,1,.1,1,2.3-1.3,.5-3.9,.1,.5-.6Zm-9.4,.8l2.3-2.6h1.6l1.8,1.5-2.4,1-2.2,1-1.1-.9Z"/>

	<path id="MD" class="st2" d="M825.8,257.7l1.7-3.8,.5-4.8-6.3,1.1-5.8,.3-3.8-16.8-2.3-5.5-1.5-4.6-22.2,4.3-37.6,7.6,2,10.4,4.8-4.9,2.5-.7,1.4-1.5,1.8-2.7,1.6,.7,2.6-.2,2.6-2.1,2-1.5,2.1-.6,1.5,1.1,2.7,1.4,1.9,1.8,1.3,1.4,4.8,1.6-.6,2.9,5.8,2.1,2.1-2.6,3.7,2.5-2.1,3.3-.7,3.3-1.8,2.6v2.1l.3,.8,2,1.3,3.4,1.1,4.3-.1,3.1,1,2.1,.3,1-2.1-1.5-2.1v-1.8l-2.4-2.1-2.1-5.5,1.3-5.3-.2-2.1-1.3-1.3s1.5-1.6,1.5-2.3c0-.6,.5-2.1,.5-2.1l1.9-1.3,1.9-1.6,.5,1-1.5,1.6-1.3,3.7,.3,1.1,1.8,.3,.5,5.5-2.1,1,.3,3.6,.5-.2,1.1-1.9,1.6,1.8-1.6,1.3-.3,3.4,2.6,3.4,3.9,.5,1.6-.8,3.2,4.2,1,.4,7.4-2.9Zm-14.5,.2l1.1,2.5,.2,1.8,1.1,1.9s.9-.9,.9-1.2-.7-3.1-.7-3.1l-.7-2.3-1.9,.4Z"/>

	<path id="ME" class="st2" d="M856.8,85.5l1.5,.4v-2.6l.8-5.5,2.6-4.7,1.5-4-1.9-2.4v-6l.8-1,.8-2.7-.2-1.5-.2-4.8,1.8-4.8,2.9-8.9,2.1-4.2h1.3l1.3,.2v1.1l1.3,2.3,2.7,.6,.8-.8v-1l4-2.9,1.8-1.8,1.5,.2,6,2.4,1.9,1,9.1,29.9h6l.8,1.9,.2,4.8,2.9,2.3h.8l.2-.5-.5-1.1,2.8-.5,1.9,2.1,2.3,3.7v1.9l-2.1,4.7-1.9,.6-3.4,3.1-4.8,5.5h-1.3c-.6,0-1-2.1-1-2.1l-1.8,.2-1,1.5-2.4,1.5-1,1.5,1.6,1.5-.5,.6-.5,2.7-1.9-.2v-1.6l-.3-1.3-1.5,.3-1.8-3.2-2.1,1.3,1.3,1.5,.3,1.1-.8,1.3,.3,3.1,.2,1.6-1.6,2.6-2.9,.5-.3,2.9-5.3,3.1-1.3,.5-1.6-1.5-3.1,3.6,1,3.2-1.5,1.3-.2,4.4-1.1,6.3-2.2-.9-.5-3.1-4-1.1-.2-2.5-11.7-37.43,1.3-.17Zm36.5,15.6l1.5-1.5,1.4,1.1,.6,2.4-1.7,.9-1.8-2.9Zm6.7-5.9l1.8,1.9s1.3,.1,1.3-.2,.2-2,.2-2l.9-.8-.8-1.8-2,.7-1.4,2.2Z"/>

	<path id="MI" class="st0" d="M635.5,204.6l19.1-1.9,.2,1.1,9.9-1.5,12-1.7,.1-.6,.2-1.5,2.1-3.7,2-1.7-.2-5.1,1.6-1.6,1.1-.3,.2-3.6,1.5-3,1.1,.6,.2,.6,.8,.2,1.9-1-.4-9.1-3.2-8.2-2.3-9.1-2.4-3.2-2.6-1.8-1.6,1.1-3.9,1.8-1.9,5-2.7,3.7-1.1,.6-1.5-.6s-2.6-1.5-2.4-2.1c.2-.6,.5-5,.5-5l3.4-1.3,.8-3.4,.6-2.6,2.4-1.6-.3-10-1.6-2.3-1.3-.8-.8-2.1,.8-.8,1.6,.3,.2-1.6-2.6-2.2-1.3-2.6h-2.6l-4.5-1.5-5.5-3.4h-2.7l-.6,.6-1-.5-3.1-2.3-2.9,1.8-2.9,2.3,.3,3.6,1,.3,2.1,.5,.5,.8-2.6,.8-2.6,.3-1.5,1.8-.3,2.1,.3,1.6,.3,5.5-3.6,2.1-.6-.2v-4.2l1.3-2.4,.6-2.4-.8-.8-1.9,.8-1,4.2-2.7,1.1-1.8,1.9-.2,1,.6,.8-.6,2.6-2.3,.5v1.1l.8,2.4-1.1,6.1-1.6,4,.6,4.7,.5,1.1-.8,2.4-.3,.8-.3,2.7,3.6,6,2.9,6.5,1.5,4.8-.8,4.7-1,6-2.4,5.2-.3,2.7-3.2,3.1,13-1Zm-33.3-72.4l-1.3-1.1-1.8-10.4-3.7-1.3-1.7-2.3-12.6-2.8-2.8-1.1-8.1-2.2-7.8-1-3.9-5.3,.7-.5,2.7-.8,3.6-2.3v-1l.6-.6,6-1,2.4-1.9,4.4-2.1,.2-1.3,1.9-2.9,1.8-.8,1.3-1.8,2.3-2.3,4.4-2.4,4.7-.5,1.1,1.1-.3,1-3.7,1-1.5,3.1-2.3,.8-.5,2.4-2.4,3.2-.3,2.6,.8,.5,1-1.1,3.6-2.9,1.3,1.3h2.3l3.2,1,1.5,1.1,1.5,3.1,2.7,2.7,3.9-.2,1.5-1,1.6,1.3,1.6,.5,1.3-.8h1.1l1.6-1,4-3.6,3.4-1.1,6.6-.3,4.5-1.9,2.6-1.3,1.5,.2v5.7l.5,.3,2.9,.8,1.9-.5,6.1-1.6,1.1-1.1,1.5,.5v7l3.2,3.1,1.3,.6,1.3,1-1.3,.3-.8-.3-3.7-.5-2.1,.6-2.3-.2-3.2,1.5h-1.8l-5.8-1.3-5.2,.2-1.9,2.6-7,.6-2.4,.8-1.1,3.1-1.3,1.1-.5-.2-1.5-1.6-4.5,2.4h-.6l-1.1-1.6-.8,.2-1.9,4.4-1,4-3.2,6.9-1.3-.8Zm-29.6-56.5l1.8-2.1,2.2-.8,5.4-3.9,2.3-.6,.5,.5-5.1,5.1-3.3,1.9-2.1,.9-1.7-1Zm86.2,32.1l.6,2.5,3.2,.2,1.3-1.2s-.1-1.5-.4-1.6c-.3-.2-1.6-1.9-1.6-1.9l-2.2,.2-1.6,.2-.3,1.1,1,.5Z"/>

	<path id="MN" class="st0" d="M455.6,60.39l-.6,3.91v10.27l1.6,5.03,1.9,3.32,.5,9.93,1.8,13.45,1.8,7.3,.4,6.4v5.3l-1.6,1.8-1.8,1.3v1.5l.9,1.7,4.1,3.5,.7,3.2v35.9l60.3-.6,21.2-.7-.5-6-1.8-2.1-7.2-4.6-3.6-5.3-3.4-.9-2-2.8h-3.2l-3.5-3.8-.5-7,.1-3.9,1.5-3-.7-2.7-2.8-3.1,2.2-6.1,5.4-4,1.2-1.4-.2-8,.2-3,2.6-3,3.8-2.9,1.3-.2,4.5-5,1.8-.8,2.3-3.9,2.4-3.6,3.1-2.6,4.8-2,9.2-4.1,3.9-1.8,.6-2.3-4.4,.4-.7,1.1h-.6l-1.8-3.1-8.9,.3-1,.8h-1l-.5-1.3-.8-1.8-2.6,.5-3.2,3.2-1.6,.8h-3.1l-2.6-1v-2.1l-1.3-.2-.5,.5-2.6-1.3-.5-2.9-1.5,.5-.5,1-2.4-.5-5.3-2.4-3.9-2.6h-2.9l-1.3-1-2.3,.6-1.1,1.1-.3,1.3h-4.8v-2.1l-6.3-.3-.3-1.5h-4.8l-1.6-1.6-1.5-6.1-.8-5.5-1.9-.8-2.3-.5-.6,.2-.3,8.2-30.1-.03,1.8,5.52Z"/>

	<path id="MO" class="st1" d="M584.1,332.3l.5-5.9,4.2-3.4,1.9-1v-2.9l.7-1.6-1.1-1.6-2.4,.3-2.1-2.5-1.7-4.5,.9-2.6-2-3.2-1.8-4.6-4.6-.7-6.8-5.6-2.2-4.2,.8-3.3,2.2-6,.6-3-1.9-1-6.9-.6-1.1-1.9v-4.1l-5.3-3.5-7.2-7.8-2.3-7.3-.5-4.2,.7-2.4-2.6-3.1-1.2-2.4-7.7,.8-10,.6-48.8,1.2,1.3,2.6-.1,2.2,2.3,3.6,3,3.9,3.1,3,2.6,.2,1.4,1.1v2.9l-1.8,1.6-.5,2.3,2.1,3.2,2.4,3,2.6,2.1,1.3,11.6-.8,40,.5,5.7,23.7-.2,23.3-.7,32.5-1.3,2.2,3.7-.8,3.1-3.1,2.5-.5,1.8,5.2,.5,4.1-1.1,1.7-5.3Z"/>

	<path id="MS" class="st1" d="M595.3,466.1l2.6-4.2,1.8,.8,6.8-1.9,2.1,.3,1.5,.8h5.2l.4-1.6-1.7-14.8-2.8-19,1-45.1-.2-16.7,.2-6.3-4.8,.3-19.6,1.6-13,.4-.2,3.2-2.8,1.3-2.6,5.1,.5,1.6,.1,2.4-2.9,1.1-3.5,5.1,.8,2.3-3,2.5-1,5.7-.6,1.9,1.6,2.5-1.5,1.4,1.5,2.8,.3,4.2-1.2,2.5-.2,.9,.4,5,2,4.5-.1,1.7,2.3,2-.7,3.1-.9,.3,.6,1.9-8.6,15-.8,8.2,.5,1.5,24.2-.7,8.2-.7,1.9-.3,.6,1.4-1,7.1,3.3,3.3,2.2,6.4,1.1-.8Z"/>

	<path id="MT" class="st1" d="M352.1,64.37l-5.3,57.13-1.3,15.2-59.1-6.6-49-7.1-1.4,11.2-1.9-1.7-.4-2.5-1.3-1.9-3.3,1.5-.7,2.5-2.3,.3-3.8-1.6-4.1,.1-2.4,.7-3.2-1.5-3,.2-2.1,1.9-.9-.6-.7-3.4,.7-3.2-2.7-3.2-3.3-2.5-2.5-12.6-.1-5.3-1.6-.8-.6,1-4.5,3.2-1.2-.1-2.3-2.8-.2-2.8,7-17.15-.6-2.67-3.5-1.12-.4-.91-2.7-3.5-4.6-10.41-3.2-1.58-1.8-4.26,1.3-4.63-3.2-7.57,4.4-21.29,32.7,6.89,18.4,3.4,32.3,5.3,29.3,4,29.2,3.5,30.8,3.07-.9,14.2Z"/>

	<path id="NC" class="st0" d="M777.7,351.3l-12.7-7.7-3.1-.8-16.6,2.1-1.6-3-2.8-2.2-16.7,.5-7.4,.9-9.2,4.5-6.8,2.7-6.5,1.2-13.4,1.4,.1-4.1,1.7-1.3,2.7-.7,.7-3.8,3.9-2.5,3.9-1.5,4.5-3.7,4.4-2.3,.7-3.2,4.1-3.8,.7,1,2.5,.2,2.4-3.6,1.7-.4,2.6,.3,1.8-4,2.5-2.4,.5-1.8,.1-3.5,4.4,.1,38.5-5.6,57.5-12.3,2,4.8,3.6,6.5,2.4,2.4,.6,2.3-2.4,.2,.8,.6-.3,4.2-2.6,1.3-.6,2.1-1.3,2.9-3.7,1.6-2.4-.3-1.5-.2-1.6-1.3,.3,1.3v1h1.9l.8,1.3-1.9,6.3h4.2l.6,1.6,2.3-2.3,1.3-.5-1.9,3.6-3.1,4.8h-1.3l-1.1-.5-2.7,.6-5.2,2.4-6.5,5.3-3.4,4.7-1.9,6.5-.5,2.4-4.7,.5-5.1,1.5-10.2-8.3Zm49.3-26.2l2.6-2.5,3.2-2.6,1.5-.6,.2-2-.6-6.1-1.5-2.3-.6-1.9,.7-.2,2.7,5.5,.4,4.4-.2,3.4-3.4,1.5-2.8,2.4-1.1,1.2-1.1-.2Z"/>

	<path id="ND" class="st1" d="M462,120l-.4-6.2-1.8-7.3-1.8-13.61-.5-9.7-1.9-3.18-1.6-5.32v-10.41l.6-3.85-1.8-5.54-28.6-.59-18.6-.6-26.5-1.3-25.2-2.16-.9,14.42-4.7,50.94,56.8,3.9,56.9,1.7v-1.2Z"/>

	<path id="NE" class="st1" d="M461.3,197.9l-1-2.3-.5-1.6-2.9-1.6-4.8-1.5-2.2-1.2-2.6,.1-3.7,.4-4.2,1.2-6-4.1-2.2-2-10.7,.6-41.5-2.4-35.6-2.2-4.3,43.7,33.1,3.3-1.4,21.1,21.7,1,40.6,1.2,43.8,.6h4.5l-2.2-3-2.6-3.9,.1-2.3-1.4-2.7-1.9-5.2-.4-6.7-1.4-4.1-.5-5-2.3-3.7-1-4.7-2.8-7.9-1-5.3-2.7,.2Z"/>

	<path id="NH" class="st0" d="M872.7,134.9l1.1-3.2-2.7-1.2-.5-3.1-4.1-1.1-.3-3-11.7-37.48-.7,.08-.6,1.6-.6-.5-1-1-1.5,1.9-.2,2.29,.5,8.41,1.9,2.8v4.3l-3.9,4.8-2.4,.9v.7l1.1,1.9v8.6l-.8,9.2-.2,4.7,1,1.4-.2,4.7-.5,1.5,1,1.1,5.1-1.2,13.8-3.5,1.7-2.9,4-1.9,.7-.8Z"/>

	<path id="NJ" class="st2" d="M814.7,221.9l.1-1.5,2.7-1.3,1.7-2.8,1.7-2.4,3.3-3.2v-1.2l-6.1-4.1-1-2.7-2.7-.3-.1-.9-.7-2.2,2.2-1.1,.2-2.9-1.3-1.3,.2-1.2,1.9-3.1v-3.1l2.5-3.1,5.6,2.5,6.4,1.9,2.5,1.2,.1,1.8-.5,2.7,.4,4.5-2.1,1.9-1.1,1,.5,.5,2.7-.3,1.1-.8,1.6,3.4,.2,9.4,.6,1.1-1.1,5.5-3.1,6.5-2.7,4-.8,4.8-2.1,2.4h-.8l-.3-2.7,.8-1-.2-1.5-4-.6-4.8-2.3-3.2-2.9-1-2,.7-2.6Z"/>

	<path id="NM" class="st2" d="M261.2,423l-16.7-2.6-1.2,9.6-15.8-2,6-39.7,7-53.2,4.4-30.9,34,3.9,37.4,4.4,32,2.8-.3,10.8-1.4-.1-7.4,97.7-28.4-1.8-38.1-3.7,.7,6.3-12.2-1.5Z"/>

	<path id="NV" class="st0" d="M114.1,167.2l38.7,8.5,26,5.2-10.6,53.1-5.4,29.8-3.3,15.5-2.1,11.1-2.6,16.4-1.7,3.1-1.6-.1-1.2-2.6-2.8-.5-1.3-1.1-1.8,.1-.9,.8-1.8,1.3-.3,7.3-.3,1.5-.5,12.4-1.1,1.8-16.7-25.5-42.1-62.1-12.43-19,8.55-32.6,8.01-31.3,29.27,6.9Z"/>

	<path id="NY" class="st2" d="M834.4,193.6l.5-2.7-.2-2.4-3-1.5-6.5-2-6-2.6-.6-.4-2.7-.3-2-1.5-2.1-5.9-3.3-.5-2.4-2.4-38.4,8.1-31.6,6-.5-6.5,1.6-1.2,1.3-1.1,1-1.6,1.8-1.1,1.9-1.8,.5-1.6,2.1-2.7,1.1-1-.2-1-1.3-3.1-1.8-.2-1.9-6.1,2.9-1.8,4.4-1.5,4-1.3,3.2-.5,6.3-.2,1.9,1.3,1.6,.2,2.1-1.3,2.6-1.1,5.2-.5,2.1-1.8,1.8-3.2,1.6-1.9h2.1l1.9-1.1,.2-2.3-1.5-2.1-.3-1.5,1.1-2.1v-1.5h-1.8l-1.8-.8-.8-1.1-.2-2.6,5.8-5.5,.6-.8,1.5-2.9,2.9-4.5,2.7-3.7,2.1-2.4,2.4-1.8,3.1-1.2,5.5-1.3,3.2,.2,4.5-1.5,7.4-2.2,.7,4.9,2.4,6.5,.8,5-1,4.2,2.6,4.5,.8,2-.9,3.2,3.7,1.7,2.7,10.2v5.8l-.6,10.9,.8,5.4,.7,3.6,1.5,7.3v8.1l-1.1,2.3,2.1,2.7,.5,.9-1.9,1.8,.3,1.3,1.3-.3,1.5-1.3,2.3-2.6,1.1-.6,1.6,.6,2.3,.2,7.9-3.9,2.9-2.7,1.3-1.5,4.2,1.6-3.4,3.6-3.9,2.9-7.1,5.3-2.6,1-5.8,1.9-4,1.1-1-.4-.3-3.8Z"/>

	<path id="OH" class="st1" d="M654.8,204.8l1.7,15.5,4.8,41.1,3.9-.2,2.3-.8,3.6,1.8,1.7,4.2,5.4,.1,1.8,2h1.7l2.4-1.4,3.1,.5,1.5,1.3,1.8-2,2.3-1.4,2.4-.4,.6,2.7,1.6,1,2.6,2,.8,.2,2-.1,1.2-.6v-2.1l1.7-1.5,.1-4.8,1.1-4.2,1.9-1.3,1,.7,1,1.1,.7,.2,.4-.4-.9-2.7v-2.2l1.1-1.4,2.5-3.6,1.3-1.5,2.2,.5,2.1-1.5,3-3.3,2.2-3.7,.2-5.4,.5-5v-4.6l-1.2-3.2,1.2-1.8,1.3-1.2-.6-2.8-4.3-25.6-6.2,3.7-3.9,2.3-3.4,3.7-4,3.9-3.2,.8-2.9,.5-5.5,2.6-2.1,.2-3.4-3.1-5.2,.6-2.6-1.5-2.2-1.3-23.1,3.4Z"/>

	<path id="OK" class="st1" d="M402.9,328.5l-1.8,24.3-.9,18,.2,1.6,4,3.6,1.7,.9h.9l.9-2.1,1.5,1.9,1.6,.1,.3-.2,.2-1.1,2.8,1.4-.4,3.5,3.8,.5,2.5,1,4.2,.6,2.3,1.6,2.5-1.7,3.5,.7,2.2,3.1,1.2,.1v2.3l2.1,.7,2.5-2.1,1.8,.6,2.7,.1,.7,2.3,4.4,1.8,1.7-.3,1.9-4.2h1.3l1.1,2.1,4.2,.8,3.4,1.3,3,.8,1.6-.7,.7-2.7h4.5l1.9,.9,2.7-1.9h1.4l.6,1.4h3.6l2-1.8,2.3,.6,1.7,2.2,3,1.7,3.4,.9,1.9,1.2-.3-37.6-1.4-10.9-.1-8.6-1.5-6.6-.6-6.8,.1-4.3-12.6,.3-46.3-.5-44.7-2.1-41.5-1.8-.4,10.7,54,2.4Z"/>

	<path id="OR" class="st2" d="M58.44,152.5l28.24,7.2,27.52,6.5,17,3.7,8.8-35.1,1.2-4.4,2.4-5.5-.7-1.3-2.5,.1-1.3-1.8,.6-1.5,.4-3.3,4.7-5.7,1.9-.9,.9-.8,.7-2.7,.8-1.1,3.9-5.7,3.7-4,.2-3.26-3.4-2.49-1.2-4.55-13.1-3.83-15.3-3.47-14.8,.37-1.1-1.31-5.1,1.84-4.5-.48-2.4-1.58-1.3,.54-4.68-.29-1.96-1.43-4.84-1.77-1.1-.07-4.45-1.27-1.76,1.52-6.26-.24-5.31-3.85,.21-9.28-2.05-3.5-4.1-.6-.7-2.5-2.4-.5-5.8,2.1-2.3,6.5-3.2,10-3.2,6.5-5,14.1-6.5,13.6-8.1,12.6-1.9,2.9-.8,8.6-1.3,6,2.71,3.5,38.53,11.9Z"/>

	<path id="PA" class="st0" d="M727.6,185.8l1.3-.5,5.7-5.5,.7,6.9,33.5-6.5,36.9-7.8,2.3,2.3,3.1,.4,2,5.6,2.4,1.9,2.8,.4,.1,.1-2.6,3.2v3.1l-1.9,3.1-.2,1.9,1.3,1.3-.2,1.9-2.4,1.1,1,3.4,.2,1.1,2.8,.3,.9,2.5,5.9,3.9v.4l-3.1,3-1.5,2.2-1.7,2.8-2.7,1.2-1.4,.3-2.1,1.3-1.6,1.4-22.4,4.3-38.7,7.8-11.3,1.4-3.9,.7-5.1-22.4-4.3-25.9,4.2-2.6Z"/>

	<path id="RI" class="st2" d="M864.6,169.3l-.8-4.4-1.6-6,5.7-1.5,1.5,1.3,3.4,4.3,2.8,4.4-2.8,1.4-1.3-.2-1.1,1.8-2.4,1.9-2.8,1.1-.6-4.1Z"/>

	<path id="SC" class="st1" d="M750,407.2l-2.1-1-1.9-5.6-2.5-2.3-2.5-.5-1.5-4.6-3-6.5-4.2-1.8-1.9-1.8-1.2-2.6-2.4-2-2.3-1.3-2.2-2.9-3.2-2.4-4.4-1.7-.4-1.4-2.3-2.8-.5-1.5-3.8-5.4-3.4,.1-3.9-2.5-1.2-1.2-.2-1.4,.6-1.6,2.7-1.3-.8-2,6.4-2.7,9.2-4.5,7.1-.9,16.4-.5,2.3,1.9,1.8,3.5,4.6-.8,12.6-1.5,2.7,.8,12.5,7.4,10.1,8.3-5.3,5.4-2.6,6.1-.5,6.3-1.6,.8-1.1,2.7-2.4,.6-2.1,3.6-2.7,2.7-2.3,3.4-1.6,.8-3.6,3.4-2.9,.2,1,3.2-5,5.3-2.3,1.6-2.2,.9Z"/>

	<path id="SD" class="st1" d="M462,174.7l-.9,3.2,.4,3,2.6,2-1.2,5.4-1.8,4.1,1.5,3.3,.7,1.1-1.3,.1-.7-1.6-.6-2-3.3-1.8-4.8-1.5-2.5-1.3-2.9,.1-3.9,.4-3.8,1.2-5.3-3.8-2.7-2.4-10.9,.8-41.5-2.4-35.6-2.2,1.5-24.8,2.8-34,.4-5,56.9,3.9,56.9,1.7v2.7l-1.3,1.5-2,1.5-.1,2.2,1.1,2.2,4.1,3.4,.5,2.7v35.9l-2.3,.4Z"/>

	<path id="TN" class="st1" d="M661.8,353.2l-13.1,1.2-23.3,2.2-37.6,2.7-11.8,.4,.9-.6,.9-4.5-1.2-3.6,3.9-2.3,.4-2.5,1.2-4.3,3-9.5,.5-5.6,.3-.2,12.3-.2,13.6-.8,.1-3.9,3.5-.1,30.4-3.3,54-5.2,10.3-1.5,7.6-.2,2.4-1.9,1.3,.3-.1,3.3-.4,1.6-2.4,2.2-1.6,3.6-2-.4-2.4,.9-2.2,3.3-1.4-.2-.8-1.2-1.1,.4-4.3,4-.8,3.1-4.2,2.2-4.3,3.6-3.8,1.5-4.4,2.8-.6,3.6-2.5,.5-2,1.7-.2,4.8-18.1,2.1Z"/>

	<path id="TX" class="st1" d="M273.8,419.2l37,3.6,29.3,1.9,7.4-97.7,54.4,2.4-1.7,23.3-1,18,.2,2,4.4,4.1,2,1.1h1.8l.5-1.2,.7,.9,2.4,.2,1.1-.6v-.2l1,.5-.4,3.7,4.5,.7,2.4,.9,4.2,.7,2.6,1.8,2.8-1.9,2.7,.6,2.2,3.1,.8,.1v2.1l3.3,1.1,2.5-2.1,1.5,.5,2.1,.1,.6,2.1,5.2,2,2.3-.5,1.9-4h.1l1.1,1.9,4.6,.9,3.4,1.3,3.2,1,2.4-1.2,.7-2.3h3.6l2.1,1,3-2h.4l.5,1.4h4.7l1.9-1.8,1.3,.4,1.7,2.1,3.3,1.9,3.4,1,2.5,1.4,2.7,2,3.1-1.2,2.1,.8,.7,20,.7,9.5,.6,4.1,2.6,4.4,.9,4.5,4.2,5.9,.3,3.1,.6,.8-.7,7.7-2.9,4.8,1.3,2.6-.5,2.4-.8,7.2-1.3,3,.3,4.2-5.6,1.6-9.9,4.5-1,1.9-2.6,1.9-2.1,1.5-1.3,.8-5.7,5.3-2.7,2.1-5.3,3.2-5.7,2.4-6.3,3.4-1.8,1.5-5.8,3.6-3.4,.6-3.9,5.5-4,.3-1,1.9,2.3,1.9-1.5,5.5-1.3,4.5-1.1,3.9-.8,4.5,.8,2.4,1.8,7,1,6.1,1.8,2.7-1,1.5-3.1,1.9-5.7-3.9-5.5-1.1-1.3,.5-3.2-.6-4.2-3.1-5.2-1.1-7.6-3.4-2.1-3.9-1.3-6.5-3.2-1.9-.6-2.3,.6-.6,.3-3.4-1.3-.6-.6-1,1.3-4.4-1.6-2.3-3.2-1.3-3.4-4.4-3.6-6.6-4.2-2.6,.2-1.9-5.3-12.3-.8-4.2-1.8-1.9-.2-1.5-6-5.3-2.6-3.1v-1.1l-2.6-2.1-6.8-1.1-7.4-.6-3.1-2.3-4.5,1.8-3.6,1.5-2.3,3.2-1,3.7-4.4,6.1-2.4,2.4-2.6-1-1.8-1.1-1.9-.6-3.9-2.3v-.6l-1.8-1.9-5.2-2.1-7.4-7.8-2.3-4.7v-8.1l-3.2-6.5-.5-2.7-1.6-1-1.1-2.1-5-2.1-1.3-1.6-7.1-7.9-1.3-3.2-4.7-2.3-1.5-4.4-2.6-2.9-1.7-.5-.6-5.4Zm174.4,141.7l-.6-7.1-2.7-7.2-.6-7,1.5-8.2,3.3-6.9,3.5-5.4,3.2-3.6,.6,.2-4.8,6.6-4.4,6.5-2,6.6-.3,5.2,.9,6.1,2.6,7.2,.5,5.2,.2,1.5-.9,.3Z"/>

	<path id="UT" class="st1" d="M219.4,299.5l24.6,3.6,1.9-13.7,7-50.5,2.3-22-32.2-3.5,2.2-13.1,1.8-10.6-34.7-6.1-12.5-2.5-10.6,52.9-5.4,30-3.3,15.4-1.7,9.2,60.6,10.9Z"/>

	<path id="VA" class="st0" d="M825.7,258.8l-.2,2.8-2.9,3.8-.4,4.6,.5,3.4-1.8,5-2.2,1.9-1.5-4.6,.4-5.4,1.6-4.2,.7-3.3-.1-1.7,5.9-2.3Zm-60.3,44.6l-38.6,5.6-4.8-.1-2.2-.3-2.5,1.9-7.3,.1-10.3,1.6-6.7,.6,4.1-2.6,4.1-2.3v-2.1l5.7-7.3,4.1-3.7,2.2-2.5,3.6,4.3,3.8,.9,2.7-1,2-1.5,2.4,1.2,4.6-1.3,1.7-4.4,2.4,.7,3.2-2.3,1.6,.4,2.8-3.2,.2-2.7-.8-1.2,4.8-10.5,1.8-5.2,.5-4.7,.7-.2,1.1,1.7,1.5,1.2,3.9-.2,1.7-8.1,3-.6,.8-2.6,2.8-2.2,1.1-2.1,1.8-4.3,.1-4.6,3.6,1.4,6.6,3.1,.3-5.2,3.4,1.2-.6,2.9,8.6,3.1,1.4,1.8-.8,3.3-1.3,1.3-.5,1.7,.5,2.4,2,1.3,3.9,1.4,2.9,1,4.9,.9,2.2,2.1,3.2,.4,.9,1.2-.4,4.7,1.4,1.1-.5,1.9,1.2,.8-.2,1.4-2.7-.1,.1,1.6,2.3,1.5,.1,1.4,1.8,1.8,.5,2.5-2.6,1.4,1.6,1.5,5.8-1.7,3.7,6.2-56.9,12.3Z"/>

	<path id="VT" class="st2" d="M823.7,104.9l2.4,6.5,.8,5.3-1,3.9,2.5,4.4,.9,2.3-.7,2.6,3.3,1.5,2.9,10.8v5.3l11.5-2.1-1-1.1,.6-1.9,.2-4.3-1-1.4,.2-4.7,.8-9.3v-8.5l-1.1-1.8v-1.6l2.8-1.1,3.5-4.4v-3.6l-1.9-2.7-.3-5.79-26.1,6.79,.7,4.9Z"/>

	<path id="WA" class="st2" d="M65.5,61.3l-2.3-4.3-4.1-.7-.4-2.4-2.5-.6-2.9-.5-1.8,1-2.3-2.9,.3-2.9,2.7-.3,1.6-4-2.6-1.1,.2-3.7,4.4-.6-2.7-2.7-1.5-7.1,.6-2.9v-7.9l-1.8-3.2,2.3-9.4,2.1,.5,2.4,2.9,2.7,2.6,3.2,1.9,4.5,2.1,3.1,.6,2.9,1.5,3.4,1,2.3-.2v-2.4l1.3-1.1,2.1-1.3,.3,1.1,.3,1.8-2.3,.5-.3,2.1,1.8,1.5,1.1,2.4,.6,1.9,1.5-.2,.2-1.3-1-1.3-.5-3.2,.8-1.8-.6-1.5v-2.6l1.8-3.6-1.1-2.6-2.4-4.8,.3-.8,1.4-.8,4.4,1.5,9.7,2.7,8.6,1.9,20,5.7,23,5.7,15,3.49-4.8,17.56-4.5,20.83-3.4,16.25-.4,9.18h0l-12.9-3.72-15.3-3.47-14.5,.32-1.1-1.53-5.7,2.09-3.9-.42-2.6-1.79-1.7,.65-4.15-.25-1.72-1.32-5.16-1.82-1.18-.16-4.8-1.39-1.92,1.65-5.65-.25-4.61-3.35,.19-8.75ZM75.1,5.9l2-.2,.5,1.4,1.5-1.6h2.3l.8,1.5-1.5,1.7,.6,.8-.7,2-1.4,.4s-.9,.1-.9-.2,1.5-2.6,1.5-2.6l-1.7-.6-.3,1.5-.7,.6-1.5-2.3-.5-2.4Z"/>

	<path id="WI" class="st0" d="M532.4,103.5l2.9,.5,2.9-.6,7.4-3.2,2.9-1.9,2.1-.8,1.9,1.5-1.1,1.1-1.9,3.1-.6,1.9,1,.6,1.8-1,1.1-.2,2.7,.8,.6,1.1,1.1,.2,.6-1.1,4,5.3,8.2,1.2,8.2,2.2,2.6,1.1,12.3,2.6,1.6,2.3,3.6,1.2,1.7,10.2,1.6,1.4,1.5,.9-1.1,2.3-1.8,1.6-2.1,4.7-1.3,2.4,.2,1.8,1.5,.3,1.1-1.9,1.5-.8,.8-2.3,1.9-1.8,2.7-4,4.2-6.3,.8-.5,.3,1-.2,2.3-2.9,6.8-2.7,5.7-.5,3.2-.6,2.6,.8,1.3-.2,2.7-1.9,2.4-.5,1.8,.6,3.6,.6,3.4-1.5,2.6-.8,2.9-1,3.1,1.1,2.4,.6,6.1,1.6,4.5-.2,3-15.9,1.8-17.5,1h-12.7l-.7-1.5-2.9-.4-2.6-1.3-2.3-3.7-.3-3.6,2-2.9-.5-1.4-2.1-2.2-.8-3.3-.6-6.8-2.1-2.5-7-4.5-3.8-5.4-3.4-1-2.2-2.8h-3.2l-2.9-3.3-.5-6.5,.1-3.8,1.5-3.1-.8-3.2-2.5-2.8,1.8-5.4,5.2-3.8,1.6-1.9-.2-8.1,.2-2.8,2.4-2.8,1,.7Z"/>

	<path id="WV" class="st1" d="M749.9,247.9l5.8-6,2.6-.8,1.6-1.5,1.5-2.2,1.1,.3,3.1-.2,4.6-3.6,1.5-.5,1.3,1,2.6,1.2,3,3-.4,4.3-5.4-2.6-4.8-1.8-.1,5.9-2.6,5.7-2.9,2.4-.8,2.3-3,.5-1.7,8.1-2.8,.2-1.1-1-1.2-2-2.2,.5-.5,5.1-1.8,5.1-5,11,.9,1.4-.1,2-2.2,2.5-1.6-.4-3.1,2.3-2.8-.8-1.8,4.9-3.8,1-2.5-1.3-2.5,1.9-2.3,.7-3.2-.8-3.8-4.5-3.5-2.2-2.5-2.5-2.9-3.7-.5-2.3-2.8-1.7-.6-1.3-.2-5.6,.3,.1,2.4-.2,1.8-1v-2.2l1.7-1.5,.1-5.2,.9-3.6,1.1-.7,.4,.3,1,1.1,1.7,.5,1.1-1.3-1-3.1v-1.6l3.1-4.6,1.2-1.3,2,.5,2.6-1.8,3.1-3.4,2.4-4.1,.2-5.6,.5-4.8v-4.9l-1.1-3,.9-1.3,.8-.7,4.3,19.3,4.3-.8,11.2-1.3,2.4,12.2Z"/>

	<path id="WY" class="st1" d="M344,155.5l-1.5,25.4-4.4,44-2.7-.3-83.3-9.1-27.9-3,2-12,6.9-41,3.8-24.2,1.3-11.2,48.2,7,59.1,6.5-1.5,17.9Z"/>
	
	<rect id="VTbox" class="st2" x="743.3" y="28.2" width="36" height="36"/>
	<rect id="NHbox" class="st0" x="788.3" y="28.2" width="36" height="36"/>
	<rect id="MAbox" class="st2" x="896.7" y="114.9" width="36" height="36"/>
	<rect id="RIbox" class="st2" x="896.7" y="159.9" width="36" height="36"/>
	<rect id="CTbox" class="st2" x="896.7" y="204.9" width="36" height="36"/>
	<rect id="NJbox" class="st2" x="896.7" y="294.9" width="36" height="36"/>
	<rect id="DEbox" class="st2" x="896.7" y="339.9" width="36" height="36"/>
	<rect id="MDbox" class="st2" x="896.7" y="384.9" width="36" height="36"/>
	<rect id="DCbox" class="st2" x="896.7" y="249.9" width="36" height="36"/>

	<line class="lin" x1="806.3" y1="68.2" x2="856.9" y2="122.3"/>
	<line class="lin" x1="761.3" y1="68.2" x2="837.3" y2="122.3"/>
	<line class="lin" x1="853.5" y1="152.4" x2="892.3" y2="132.9"/>
	<line class="lin" x1="868.1" y1="163.6" x2="892.7" y2="177.9"/>
	<line class="lin" x1="848.6" y1="169.2" x2="892.7" y2="223.3"/>
	<line class="lin" x1="828.2" y1="206.8" x2="892.3" y2="267.9"/>
	<line class="lin" x1="818.4" y1="240.9" x2="892.7" y2="312.9"/>
	<line class="lin" x1="795.2" y1="233.1" x2="892.7" y2="360.8"/>
	<line class="lin" x1="794.8" y1="248.4" x2="892.7" y2="402.9"/>
	<circle class="lin" cx="792.3" cy="245" r="4.1"/>
</svg>

