<svg xmlns="http://www.w3.org/2000/svg" 
     xmlns:xlink="http://www.w3.org/1999/xlink"  
     width="400px" 
     height="275px" 
     viewBox="0 0 400 275">
<defs>
<style>
.cls-font {
fill:#595959;
font-family:ArialNarrow, Arial;
font-size:15px;
}
.cls-bar-red{fill:#a01e21;}
.cls-bar-blue{fill:#3C3F76;}
.cls-grid{fill:none;stroke:#d9d9d9;stroke-linejoin:round;stroke-width:1px;}
</style>
</defs>
<g id="y-axis_labels">
	<text class="cls-font" transform="translate(25 212.87)"><tspan x="0" y="0">0</tspan></text>
	<text class="cls-font" transform="translate(25 172.87)"><tspan x="0" y="0">1</tspan></text>
	<text class="cls-font" transform="translate(25 132.87)"><tspan x="0" y="0">2</tspan></text>
	<text class="cls-font" transform="translate(25 92.87)"><tspan x="0" y="0">3</tspan></text>
	<text class="cls-font" transform="translate(25 52.87)"><tspan x="0" y="0">4</tspan></text>
	<text class="cls-font" transform="translate(25 12.87)"><tspan x="0" y="0">5</tspan></text>
	<text class="cls-font" transform="translate(12.87 161.86) rotate(-90)"><tspan class="cls-font" x="0" y="0"># Game Resources</tspan></text>
</g>
<g id="x-axis_labels">
	<text id="St01" class="cls-font" transform="translate(36.78 226.6)"><tspan x="0" y="0">NH</tspan></text>
	<text id="St02" class="cls-font" transform="translate(68.82 226.61)"><tspan x="0" y="0">NV</tspan></text>
	<text id="St03" class="cls-font" transform="translate(97.12 226.6)"><tspan x="0" y="0">CO</tspan></text>
	<text id="St04" class="cls-font" transform="translate(127.45 226.6)"><tspan x="0" y="0">MN</tspan></text>
	<text id="St05" class="cls-font" transform="translate(157.8 226.6)"><tspan x="0" y="0">WI</tspan></text>
	<text id="St06" class="cls-font" transform="translate(187.46 226.6)"><tspan x="0" y="0">AZ</tspan></text>
	<text id="St07" class="cls-font" transform="translate(218.47 226.6)"><tspan x="0" y="0">VA</tspan></text>
	<text id="St08" class="cls-font" transform="translate(248.49 226.61)"><tspan x="0" y="0">NC</tspan></text>
	<text id="St09" class="cls-font" transform="translate(279.85 226.6)"><tspan x="0" y="0">MI</tspan></text>
	<text id="St10" class="cls-font" transform="translate(305.87 226.6)"><tspan x="0" y="0">GA</tspan></text>
	<text id="St11" class="cls-font" transform="translate(336.79 226.61)"><tspan x="0" y="0">PA</tspan></text>
	<text id="St12" class="cls-font" transform="translate(367.77 226.6)"><tspan x="0" y="0">FL</tspan></text>
	
	<text id="EV01" class="cls-font" transform="translate(42.58 241.6)"><tspan x="0" y="0">4</tspan></text>
	<text id="EV02" class="cls-font" transform="translate(73.58 241.6)"><tspan x="0" y="0">6</tspan></text>
	<text id="EV03" class="cls-font" transform="translate(102.58 241.61)"><tspan x="0" y="0">9</tspan></text>
	<text id="EV04" class="cls-font" transform="translate(129.58 241.61)"><tspan x="0" y="0">10</tspan></text>
	<text id="EV05" class="cls-font" transform="translate(158.58 241.6)"><tspan x="0" y="0">10</tspan></text>
	<text id="EV06" class="cls-font" transform="translate(188.58 241.6)"><tspan x="0" y="0">11</tspan></text>
	<text id="EV07" class="cls-font" transform="translate(218.58 241.61)"><tspan x="0" y="0">13</tspan></text>
	<text id="EV08" class="cls-font" transform="translate(249.16 241.6)"><tspan x="0" y="0">15</tspan></text>
	<text id="EV09" class="cls-font" transform="translate(279.16 241.6)"><tspan x="0" y="0">16</tspan></text>
	<text id="EV10" class="cls-font" transform="translate(309.16 241.61)"><tspan x="0" y="0">16</tspan></text>
	<text id="EV11" class="cls-font" transform="translate(339.16 241.61)"><tspan x="0" y="0">20</tspan></text>
	<text id="EV12" class="cls-font" transform="translate(369.16 241.61)"><tspan x="0" y="0">29</tspan></text>
	
	<text class="cls-font" transform="translate(134.5 263.52)"><tspan class="cls-font" x="0" y="0">States &amp; Electoral Votes</tspan></text>
</g>
<g id="grids">
<line class="cls-grid" x1="35" y1="168.73" x2="390" y2="168.73"/>
<line class="cls-grid" x1="35" y1="128.73" x2="390" y2="128.73"/>
<line class="cls-grid" x1="35" y1="88.73" x2="390" y2="88.73"/>
<line class="cls-grid" x1="35" y1="48.73" x2="390" y2="48.73"/>
<line class="cls-grid" x1="35" y1="8.73" x2="390" y2="8.73"/>
<line class="cls-grid" x1="35" y1="208.73" x2="390" y2="208.73"/>
</g>
<rect id="barNH" class="cls-bar-red" x="40" y="8" width="12" height="0" />
<rect id="barNV" class="cls-bar-red" x="70" y="168" width="12" height="40" />
<rect id="barCO" class="cls-bar-red" x="100" y="168" width="12" height="40" />
<rect id="barMN" class="cls-bar-red" x="130" y="168" width="12" height="40" />
<rect id="barWI" class="cls-bar-red" x="160" y="168" width="12" height="40" />
<rect id="barAZ" class="cls-bar-red" x="190" y="168" width="12" height="40" />
<rect id="barVA" class="cls-bar-red" x="220" y="128" width="12" height="80" />
<rect id="barNC" class="cls-bar-red" x="250" y="88" width="12" height="120" />
<rect id="barMI" class="cls-bar-red" x="280" y="88" width="12" height="120" />
<rect id="barGA" class="cls-bar-red" x="310" y="48" width="12" height="160" />
<rect id="barPA" class="cls-bar-red" x="340" y="48" width="12" height="160" />
<rect id="barFL" class="cls-bar-red" x="370" y="8" width="12" height="200" />






</svg>
